<?xml version="1.0" standalone="no"?>
<svg xmlns="http://www.w3.org/2000/svg" xmlns:xlink="http://www.w3.org/1999/xlink" width="728pt" height="2368pt" viewBox="0.00 0.00 727.51 2368.45">
<g id="graph0" class="graph" transform="translate(4,2364.449951171875) scale(1)" data-name="TinyNFA">

<polygon fill="white" stroke="none" points="-4,4 -4,-2364.45 723.51,-2364.45 723.51,4 -4,4" style=""/>
<!-- S0 -->
<g id="node1" class="node" pointer-events="visible" data-name="S0">

<ellipse fill="black" stroke="black" cx="1.8" cy="-1181.91" rx="1.8" ry="1.8" style=""/>
</g>
<!-- start -->
<g id="node2" class="node" pointer-events="visible" data-name="start">

<ellipse fill="none" stroke="black" cx="121.93" cy="-1181.91" rx="54" ry="54" style=""/>
</g>
<!-- S0&#45;&gt;start -->
<g id="edge1" class="edge" data-name="S0-&gt;start">

<path fill="none" stroke="black" d="M3.55,-1181.91C8,-1181.91 31.45,-1181.91 56.24,-1181.91" style=""/>
<polygon fill="black" stroke="black" points="56.15,-1185.41 66.15,-1181.91 56.15,-1178.41 56.15,-1185.41" style=""/>
<text text-anchor="middle" x="35.77" y="-1186.41" font-family="Times,serif" font-size="15.00" fill="#0847cf" style="">Start</text>
</g>
<!-- KW_if1 -->
<g id="node3" class="node" pointer-events="visible" data-name="KW_if1">

<ellipse fill="none" stroke="black" cx="237.43" cy="-2269.91" rx="18" ry="18" style=""/>
</g>
<!-- start&#45;&gt;KW_if1 -->
<g id="edge2" class="edge" data-name="start-&gt;KW_if1">

<path fill="none" stroke="black" d="M126.93,-1236.03C138.24,-1385.03 172.63,-1813.66 219.43,-2167.91 222.7,-2192.64 227.43,-2220.57 231.07,-2240.95" style=""/>
<polygon fill="black" stroke="black" points="227.62,-2241.57 232.85,-2250.79 234.51,-2240.32 227.62,-2241.57" style=""/>
<text text-anchor="middle" x="197.68" y="-2011.41" font-family="Times,serif" font-size="15.00" fill="#0847cf" style="">ε</text>
</g>
<!-- KW_then1 -->
<g id="node5" class="node" pointer-events="visible" data-name="KW_then1">

<ellipse fill="none" stroke="black" cx="237.43" cy="-2140.91" rx="18" ry="18" style=""/>
</g>
<!-- start&#45;&gt;KW_then1 -->
<g id="edge4" class="edge" data-name="start-&gt;KW_then1">

<path fill="none" stroke="black" d="M128.44,-1235.87C142.28,-1369.89 180.17,-1728.64 219.43,-2026.91 223.24,-2055.84 228.22,-2088.79 231.81,-2111.8" style=""/>
<polygon fill="black" stroke="black" points="228.35,-2112.33 233.36,-2121.67 235.26,-2111.25 228.35,-2112.33" style=""/>
<text text-anchor="middle" x="197.68" y="-1869.41" font-family="Times,serif" font-size="15.00" fill="#0847cf" style="">ε</text>
</g>
<!-- KW_else1 -->
<g id="node7" class="node" pointer-events="visible" data-name="KW_else1">

<ellipse fill="none" stroke="black" cx="237.43" cy="-1999.91" rx="18" ry="18" style=""/>
</g>
<!-- start&#45;&gt;KW_else1 -->
<g id="edge6" class="edge" data-name="start-&gt;KW_else1">

<path fill="none" stroke="black" d="M130.36,-1235.62C146.54,-1352.43 186.13,-1638.37 219.43,-1877.91 223.86,-1909.77 228.95,-1946.3 232.4,-1971.02" style=""/>
<polygon fill="black" stroke="black" points="228.89,-1971.21 233.74,-1980.63 235.82,-1970.24 228.89,-1971.21" style=""/>
<text text-anchor="middle" x="197.68" y="-1748.41" font-family="Times,serif" font-size="15.00" fill="#0847cf" style="">ε</text>
</g>
<!-- KW_repeat1 -->
<g id="node9" class="node" pointer-events="visible" data-name="KW_repeat1">

<ellipse fill="none" stroke="black" cx="237.43" cy="-1850.91" rx="18" ry="18" style=""/>
</g>
<!-- start&#45;&gt;KW_repeat1 -->
<g id="edge8" class="edge" data-name="start-&gt;KW_repeat1">

<path fill="none" stroke="black" d="M131.98,-1235.25C154.79,-1369.69 214.06,-1719.04 231.52,-1821.97" style=""/>
<polygon fill="black" stroke="black" points="228.02,-1822.24 233.14,-1831.52 234.92,-1821.07 228.02,-1822.24" style=""/>
<text text-anchor="middle" x="197.68" y="-1638.41" font-family="Times,serif" font-size="15.00" fill="#0847cf" style="">ε</text>
</g>
<!-- KW_until1 -->
<g id="node11" class="node" pointer-events="visible" data-name="KW_until1">

<ellipse fill="none" stroke="black" cx="237.43" cy="-1700.91" rx="18" ry="18" style=""/>
</g>
<!-- start&#45;&gt;KW_until1 -->
<g id="edge10" class="edge" data-name="start-&gt;KW_until1">

<path fill="none" stroke="black" d="M134.44,-1234.53C158.18,-1343.1 211.9,-1588.75 230.19,-1672.4" style=""/>
<polygon fill="black" stroke="black" points="226.75,-1673.03 232.31,-1682.05 233.59,-1671.53 226.75,-1673.03" style=""/>
<text text-anchor="middle" x="197.68" y="-1537.41" font-family="Times,serif" font-size="15.00" fill="#0847cf" style="">ε</text>
</g>
<!-- KW_read1 -->
<g id="node13" class="node" pointer-events="visible" data-name="KW_read1">

<ellipse fill="none" stroke="black" cx="237.43" cy="-1558.91" rx="18" ry="18" style=""/>
</g>
<!-- start&#45;&gt;KW_read1 -->
<g id="edge12" class="edge" data-name="start-&gt;KW_read1">

<path fill="none" stroke="black" d="M138.47,-1233.54C162.82,-1314.41 209.13,-1468.22 228.05,-1531.08" style=""/>
<polygon fill="black" stroke="black" points="224.59,-1531.71 230.82,-1540.28 231.29,-1529.69 224.59,-1531.71" style=""/>
<text text-anchor="middle" x="197.68" y="-1441.41" font-family="Times,serif" font-size="15.00" fill="#0847cf" style="">ε</text>
</g>
<!-- KW_write1 -->
<g id="node15" class="node" pointer-events="visible" data-name="KW_write1">

<ellipse fill="none" stroke="black" cx="237.43" cy="-1420.91" rx="18" ry="18" style=""/>
</g>
<!-- start&#45;&gt;KW_write1 -->
<g id="edge14" class="edge" data-name="start-&gt;KW_write1">

<path fill="none" stroke="black" d="M146.04,-1230.56C169.51,-1279.99 204.99,-1354.71 223.76,-1394.23" style=""/>
<polygon fill="black" stroke="black" points="220.59,-1395.72 228.04,-1403.25 226.91,-1392.71 220.59,-1395.72" style=""/>
<text text-anchor="middle" x="197.68" y="-1347.41" font-family="Times,serif" font-size="15.00" fill="#0847cf" style="">ε</text>
</g>
<!-- KW_end1 -->
<g id="node17" class="node" pointer-events="visible" data-name="KW_end1">

<ellipse fill="none" stroke="black" cx="237.43" cy="-1293.91" rx="18" ry="18" style=""/>
</g>
<!-- start&#45;&gt;KW_end1 -->
<g id="edge16" class="edge" data-name="start-&gt;KW_end1">

<path fill="none" stroke="black" d="M161.04,-1219.52C179.51,-1237.75 200.95,-1258.9 216.24,-1273.98" style=""/>
<polygon fill="black" stroke="black" points="213.38,-1276.08 222.96,-1280.62 218.3,-1271.1 213.38,-1276.08" style=""/>
<text text-anchor="middle" x="197.68" y="-1261.41" font-family="Times,serif" font-size="15.00" fill="#0847cf" style="">ε</text>
</g>
<!-- ID1 -->
<g id="node19" class="node" pointer-events="visible" data-name="ID1">

<ellipse fill="none" stroke="black" cx="237.43" cy="-1181.91" rx="18" ry="18" style=""/>
</g>
<!-- start&#45;&gt;ID1 -->
<g id="edge18" class="edge" data-name="start-&gt;ID1">

<path fill="none" stroke="black" d="M176.36,-1181.91C187.19,-1181.91 198.19,-1181.91 207.76,-1181.91" style=""/>
<polygon fill="black" stroke="black" points="207.49,-1185.41 217.49,-1181.91 207.49,-1178.41 207.49,-1185.41" style=""/>
<text text-anchor="middle" x="197.68" y="-1186.41" font-family="Times,serif" font-size="15.00" fill="#0847cf" style="">ε</text>
</g>
<!-- NUM1 -->
<g id="node21" class="node" pointer-events="visible" data-name="NUM1">

<ellipse fill="none" stroke="black" cx="237.43" cy="-1125.91" rx="18" ry="18" style=""/>
</g>
<!-- start&#45;&gt;NUM1 -->
<g id="edge21" class="edge" data-name="start-&gt;NUM1">

<path fill="none" stroke="black" d="M170.74,-1158.32C184.47,-1151.55 198.91,-1144.42 210.75,-1138.58" style=""/>
<polygon fill="black" stroke="black" points="212.02,-1141.86 219.44,-1134.3 208.92,-1135.58 212.02,-1141.86" style=""/>
<text text-anchor="middle" x="197.68" y="-1149.41" font-family="Times,serif" font-size="15.00" fill="#0847cf" style="">ε</text>
</g>
<!-- ARITHOP -->
<g id="node23" class="node" pointer-events="visible" data-name="ARITHOP">

<ellipse fill="none" stroke="black" cx="237.43" cy="-1066.91" rx="18" ry="18" style=""/>
</g>
<!-- start&#45;&gt;ARITHOP -->
<g id="edge24" class="edge" data-name="start-&gt;ARITHOP">

<path fill="none" stroke="black" d="M160.41,-1143.94C179.04,-1125.06 200.82,-1102.99 216.28,-1087.33" style=""/>
<polygon fill="black" stroke="black" points="218.56,-1090 223.09,-1080.42 213.58,-1085.08 218.56,-1090" style=""/>
<text text-anchor="middle" x="197.68" y="-1111.41" font-family="Times,serif" font-size="15.00" fill="#0847cf" style="">ε</text>
</g>
<!-- COMPOP -->
<g id="node25" class="node" pointer-events="visible" data-name="COMPOP">

<ellipse fill="none" stroke="black" cx="237.43" cy="-1002.91" rx="18" ry="18" style=""/>
</g>
<!-- start&#45;&gt;COMPOP -->
<g id="edge26" class="edge" data-name="start-&gt;COMPOP">

<path fill="none" stroke="black" d="M151.57,-1136.74C173.56,-1102.06 203.09,-1055.49 220.88,-1027.43" style=""/>
<polygon fill="black" stroke="black" points="223.67,-1029.58 226.06,-1019.26 217.75,-1025.83 223.67,-1029.58" style=""/>
<text text-anchor="middle" x="197.68" y="-1070.41" font-family="Times,serif" font-size="15.00" fill="#0847cf" style="">ε</text>
</g>
<!-- ASSIGN1 -->
<g id="node27" class="node" pointer-events="visible" data-name="ASSIGN1">

<ellipse fill="none" stroke="black" cx="237.43" cy="-929.91" rx="18" ry="18" style=""/>
</g>
<!-- start&#45;&gt;ASSIGN1 -->
<g id="edge28" class="edge" data-name="start-&gt;ASSIGN1">

<path fill="none" stroke="black" d="M145.08,-1132.72C168.78,-1080.11 205.49,-998.6 224.35,-956.74" style=""/>
<polygon fill="black" stroke="black" points="227.52,-958.21 228.44,-947.66 221.14,-955.34 227.52,-958.21" style=""/>
<text text-anchor="middle" x="197.68" y="-1022.41" font-family="Times,serif" font-size="15.00" fill="#0847cf" style="">ε</text>
</g>
<!-- PAREN -->
<g id="node30" class="node" pointer-events="visible" data-name="PAREN">

<ellipse fill="none" stroke="black" cx="237.43" cy="-836.91" rx="18" ry="18" style=""/>
</g>
<!-- start&#45;&gt;PAREN -->
<g id="edge31" class="edge" data-name="start-&gt;PAREN">

<path fill="none" stroke="black" d="M139.8,-1130.63C164.12,-1056.7 208.21,-922.7 227.26,-864.8" style=""/>
<polygon fill="black" stroke="black" points="230.55,-865.99 230.35,-855.4 223.9,-863.8 230.55,-865.99" style=""/>
<text text-anchor="middle" x="197.68" y="-962.41" font-family="Times,serif" font-size="15.00" fill="#0847cf" style="">ε</text>
</g>
<!-- SEMICOLON -->
<g id="node32" class="node" pointer-events="visible" data-name="SEMICOLON">

<ellipse fill="none" stroke="black" cx="237.43" cy="-705.91" rx="18" ry="18" style=""/>
</g>
<!-- start&#45;&gt;SEMICOLON -->
<g id="edge33" class="edge" data-name="start-&gt;SEMICOLON">

<path fill="none" stroke="black" d="M135.51,-1129.15C159.56,-1028.31 211.29,-811.35 229.73,-734.01" style=""/>
<polygon fill="black" stroke="black" points="233.03,-735.25 231.95,-724.71 226.22,-733.62 233.03,-735.25" style=""/>
<text text-anchor="middle" x="197.68" y="-877.41" font-family="Times,serif" font-size="15.00" fill="#0847cf" style="">ε</text>
</g>
<!-- COMMENT -->
<g id="node34" class="node" pointer-events="visible" data-name="COMMENT">

<ellipse fill="none" stroke="black" cx="237.43" cy="-496.91" rx="18" ry="18" style=""/>
</g>
<!-- start&#45;&gt;COMMENT -->
<g id="edge35" class="edge" data-name="start-&gt;COMMENT">

<path fill="none" stroke="black" d="M131.79,-1128.45C154.5,-991.39 214.22,-630.94 231.61,-525.98" style=""/>
<polygon fill="black" stroke="black" points="235.05,-526.67 233.23,-516.24 228.14,-525.53 235.05,-526.67" style=""/>
<text text-anchor="middle" x="197.68" y="-742.41" font-family="Times,serif" font-size="15.00" fill="#0847cf" style="">ε</text>
</g>
<!-- STRING1 -->
<g id="node37" class="node" pointer-events="visible" data-name="STRING1">

<ellipse fill="none" stroke="black" cx="237.43" cy="-132.91" rx="18" ry="18" style=""/>
</g>
<!-- start&#45;&gt;STRING1 -->
<g id="edge39" class="edge" data-name="start-&gt;STRING1">

<path fill="none" stroke="black" d="M128.75,-1128.09C149.26,-938.57 217.71,-305.91 233.27,-162.14" style=""/>
<polygon fill="black" stroke="black" points="236.73,-162.67 234.33,-152.35 229.77,-161.91 236.73,-162.67" style=""/>
<text text-anchor="middle" x="197.68" y="-506.41" font-family="Times,serif" font-size="15.00" fill="#0847cf" style="">ε</text>
</g>
<!-- KW_if2 -->
<g id="node4" class="node" pointer-events="visible" data-name="KW_if2">

<ellipse fill="none" stroke="black" cx="446.59" cy="-2315.91" rx="40.58" ry="40.58" style=""/>
<ellipse fill="none" stroke="black" cx="446.59" cy="-2315.91" rx="44.58" ry="44.58" style=""/>
<text text-anchor="middle" x="446.59" y="-2311.71" font-family="Times,serif" font-size="14.00" style="">IF_KW</text>
</g>
<!-- KW_if1&#45;&gt;KW_if2 -->
<g id="edge3" class="edge" data-name="KW_if1-&gt;KW_if2">

<path fill="none" stroke="black" d="M255.38,-2273.68C284.78,-2280.2 346.39,-2293.88 391.56,-2303.91" style=""/>
<polygon fill="black" stroke="black" points="390.66,-2307.3 401.18,-2306.05 392.18,-2300.47 390.66,-2307.3" style=""/>
<text text-anchor="middle" x="306.34" y="-2295.41" font-family="Times,serif" font-size="15.00" fill="#0847cf" style="">if</text>
</g>
<!-- KW_then2 -->
<g id="node6" class="node" pointer-events="visible" data-name="KW_then2">

<ellipse fill="none" stroke="black" cx="446.59" cy="-2191.91" rx="57.89" ry="57.89" style=""/>
<ellipse fill="none" stroke="black" cx="446.59" cy="-2191.91" rx="61.9" ry="61.9" style=""/>
<text text-anchor="middle" x="446.59" y="-2187.71" font-family="Times,serif" font-size="14.00" style="">THEN_KW</text>
</g>
<!-- KW_then1&#45;&gt;KW_then2 -->
<g id="edge5" class="edge" data-name="KW_then1-&gt;KW_then2">

<path fill="none" stroke="black" d="M255.38,-2145.08C281.34,-2151.47 332.41,-2164.05 375.11,-2174.56" style=""/>
<polygon fill="black" stroke="black" points="374.02,-2177.9 384.57,-2176.89 375.7,-2171.1 374.02,-2177.9" style=""/>
<text text-anchor="middle" x="306.34" y="-2168.41" font-family="Times,serif" font-size="15.00" fill="#0847cf" style="">then</text>
</g>
<!-- KW_else2 -->
<g id="node8" class="node" pointer-events="visible" data-name="KW_else2">

<ellipse fill="none" stroke="black" cx="446.59" cy="-2052.91" rx="55.04" ry="55.04" style=""/>
<ellipse fill="none" stroke="black" cx="446.59" cy="-2052.91" rx="59.04" ry="59.04" style=""/>
<text text-anchor="middle" x="446.59" y="-2048.71" font-family="Times,serif" font-size="14.00" style="">ELSE_KW</text>
</g>
<!-- KW_else1&#45;&gt;KW_else2 -->
<g id="edge7" class="edge" data-name="KW_else1-&gt;KW_else2">

<path fill="none" stroke="black" d="M255.38,-2004.25C281.96,-2011.05 334.88,-2024.59 378.16,-2035.66" style=""/>
<polygon fill="black" stroke="black" points="377.2,-2039.03 387.75,-2038.12 378.93,-2032.25 377.2,-2039.03" style=""/>
<text text-anchor="middle" x="306.34" y="-2028.41" font-family="Times,serif" font-size="15.00" fill="#0847cf" style="">end</text>
</g>
<!-- KW_repeat2 -->
<g id="node10" class="node" pointer-events="visible" data-name="KW_repeat2">

<ellipse fill="none" stroke="black" cx="446.59" cy="-1903.91" rx="68.38" ry="68.38" style=""/>
<ellipse fill="none" stroke="black" cx="446.59" cy="-1903.91" rx="72.37" ry="72.37" style=""/>
<text text-anchor="middle" x="446.59" y="-1899.71" font-family="Times,serif" font-size="14.00" style="">REPEAT_KW</text>
</g>
<!-- KW_repeat1&#45;&gt;KW_repeat2 -->
<g id="edge9" class="edge" data-name="KW_repeat1-&gt;KW_repeat2">

<path fill="none" stroke="black" d="M255.38,-1855.25C279.37,-1861.39 324.81,-1873.01 365.26,-1883.36" style=""/>
<polygon fill="black" stroke="black" points="364.22,-1886.71 374.77,-1885.79 365.95,-1879.92 364.22,-1886.71" style=""/>
<text text-anchor="middle" x="306.34" y="-1879.41" font-family="Times,serif" font-size="15.00" fill="#0847cf" style="">repeat</text>
</g>
<!-- KW_until2 -->
<g id="node12" class="node" pointer-events="visible" data-name="KW_until2">

<ellipse fill="none" stroke="black" cx="446.59" cy="-1748.91" rx="60.84" ry="60.84" style=""/>
<ellipse fill="none" stroke="black" cx="446.59" cy="-1748.91" rx="64.83" ry="64.83" style=""/>
<text text-anchor="middle" x="446.59" y="-1744.71" font-family="Times,serif" font-size="14.00" style="">UNTIL_KW</text>
</g>
<!-- KW_until1&#45;&gt;KW_until2 -->
<g id="edge11" class="edge" data-name="KW_until1-&gt;KW_until2">

<path fill="none" stroke="black" d="M255.38,-1704.84C280.75,-1710.72 330.11,-1722.16 372.19,-1731.91" style=""/>
<polygon fill="black" stroke="black" points="371.27,-1735.28 381.8,-1734.13 372.85,-1728.47 371.27,-1735.28" style=""/>
<text text-anchor="middle" x="306.34" y="-1727.41" font-family="Times,serif" font-size="15.00" fill="#0847cf" style="">until</text>
</g>
<!-- KW_read2 -->
<g id="node14" class="node" pointer-events="visible" data-name="KW_read2">

<ellipse fill="none" stroke="black" cx="446.59" cy="-1603.91" rx="58.47" ry="58.47" style=""/>
<ellipse fill="none" stroke="black" cx="446.59" cy="-1603.91" rx="62.48" ry="62.48" style=""/>
<text text-anchor="middle" x="446.59" y="-1599.71" font-family="Times,serif" font-size="14.00" style="">READ_KW</text>
</g>
<!-- KW_read1&#45;&gt;KW_read2 -->
<g id="edge13" class="edge" data-name="KW_read1-&gt;KW_read2">

<path fill="none" stroke="black" d="M255.38,-1562.59C281.11,-1568.18 331.5,-1579.13 373.96,-1588.35" style=""/>
<polygon fill="black" stroke="black" points="373.13,-1591.75 383.64,-1590.46 374.62,-1584.91 373.13,-1591.75" style=""/>
<text text-anchor="middle" x="306.34" y="-1584.41" font-family="Times,serif" font-size="15.00" fill="#0847cf" style="">read</text>
</g>
<!-- KW_write2 -->
<g id="node16" class="node" pointer-events="visible" data-name="KW_write2">

<ellipse fill="none" stroke="black" cx="446.59" cy="-1456.91" rx="62.54" ry="62.54" style=""/>
<ellipse fill="none" stroke="black" cx="446.59" cy="-1456.91" rx="66.55" ry="66.55" style=""/>
<text text-anchor="middle" x="446.59" y="-1452.71" font-family="Times,serif" font-size="14.00" style="">WRITE_KW</text>
</g>
<!-- KW_write1&#45;&gt;KW_write2 -->
<g id="edge15" class="edge" data-name="KW_write1-&gt;KW_write2">

<path fill="none" stroke="black" d="M255.38,-1423.86C280.26,-1428.18 328.19,-1436.51 369.72,-1443.73" style=""/>
<polygon fill="black" stroke="black" points="369.01,-1447.16 379.46,-1445.42 370.21,-1440.26 369.01,-1447.16" style=""/>
<text text-anchor="middle" x="306.34" y="-1441.41" font-family="Times,serif" font-size="15.00" fill="#0847cf" style="">write</text>
</g>
<!-- KW_end2 -->
<g id="node18" class="node" pointer-events="visible" data-name="KW_end2">

<ellipse fill="none" stroke="black" cx="446.59" cy="-1316.91" rx="51.62" ry="51.62" style=""/>
<ellipse fill="none" stroke="black" cx="446.59" cy="-1316.91" rx="55.6" ry="55.6" style=""/>
<text text-anchor="middle" x="446.59" y="-1312.71" font-family="Times,serif" font-size="14.00" style="">END_KW</text>
</g>
<!-- KW_end1&#45;&gt;KW_end2 -->
<g id="edge17" class="edge" data-name="KW_end1-&gt;KW_end2">

<path fill="none" stroke="black" d="M255.74,-1295.83C282.78,-1298.84 336.47,-1304.8 379.87,-1309.62" style=""/>
<polygon fill="black" stroke="black" points="379.41,-1313.08 389.73,-1310.71 380.18,-1306.13 379.41,-1313.08" style=""/>
<text text-anchor="middle" x="306.34" y="-1308.41" font-family="Times,serif" font-size="15.00" fill="#0847cf" style="">end</text>
</g>
<!-- IDF -->
<g id="node20" class="node" pointer-events="visible" data-name="IDF">

<ellipse fill="none" stroke="black" cx="446.59" cy="-1181.91" rx="21.42" ry="21.42" style=""/>
<ellipse fill="none" stroke="black" cx="446.59" cy="-1181.91" rx="25.45" ry="25.45" style=""/>
<text text-anchor="middle" x="446.59" y="-1177.71" font-family="Times,serif" font-size="14.00" style="">ID</text>
</g>
<!-- ID1&#45;&gt;IDF -->
<g id="edge19" class="edge" data-name="ID1-&gt;IDF">

<path fill="none" stroke="black" d="M255.74,-1181.91C289.48,-1181.91 364.68,-1181.91 409.65,-1181.91" style=""/>
<polygon fill="black" stroke="black" points="409.42,-1185.41 419.42,-1181.91 409.42,-1178.41 409.42,-1185.41" style=""/>
<text text-anchor="middle" x="306.34" y="-1186.41" font-family="Times,serif" font-size="15.00" fill="#0847cf" style="">letter, digit</text>
</g>
<!-- IDF&#45;&gt;IDF -->
<g id="edge20" class="edge" data-name="IDF-&gt;IDF">

<path fill="none" stroke="black" d="M427.92,-1199.67C421.84,-1212.43 428.06,-1225.14 446.59,-1225.14 459.46,-1225.14 466.4,-1218.99 467.38,-1210.96" style=""/>
<polygon fill="black" stroke="black" points="470.83,-1210.34 465.53,-1201.16 463.95,-1211.63 470.83,-1210.34" style=""/>
<text text-anchor="middle" x="446.59" y="-1229.64" font-family="Times,serif" font-size="15.00" fill="#0847cf" style="">letter, digit</text>
</g>
<!-- NUMF -->
<g id="node22" class="node" pointer-events="visible" data-name="NUMF">

<ellipse fill="none" stroke="black" cx="446.59" cy="-1045.91" rx="52.21" ry="52.21" style=""/>
<ellipse fill="none" stroke="black" cx="446.59" cy="-1045.91" rx="56.2" ry="56.2" style=""/>
<text text-anchor="middle" x="446.59" y="-1041.71" font-family="Times,serif" font-size="14.00" style="">NUMBER</text>
</g>
<!-- NUM1&#45;&gt;NUMF -->
<g id="edge22" class="edge" data-name="NUM1-&gt;NUMF">

<path fill="none" stroke="black" d="M254.69,-1119.63C282,-1109.08 338.49,-1087.27 382.96,-1070.1" style=""/>
<polygon fill="black" stroke="black" points="384.22,-1073.36 392.28,-1066.5 381.69,-1066.83 384.22,-1073.36" style=""/>
<text text-anchor="middle" x="306.34" y="-1114.41" font-family="Times,serif" font-size="15.00" fill="#0847cf" style="">digit</text>
</g>
<!-- NUMF&#45;&gt;NUMF -->
<g id="edge23" class="edge" data-name="NUMF-&gt;NUMF">

<path fill="none" stroke="black" d="M426.08,-1098.71C427.77,-1111.11 434.6,-1120.26 446.59,-1120.26 454.64,-1120.26 460.37,-1116.13 463.77,-1109.66" style=""/>
<polygon fill="black" stroke="black" points="467.1,-1110.74 466.65,-1100.15 460.4,-1108.71 467.1,-1110.74" style=""/>
<text text-anchor="middle" x="446.59" y="-1124.76" font-family="Times,serif" font-size="15.00" fill="#0847cf" style="">digit</text>
</g>
<!-- ARITHOPF -->
<g id="node24" class="node" pointer-events="visible" data-name="ARITHOPF">

<ellipse fill="none" stroke="black" cx="446.59" cy="-881.91" rx="85.19" ry="85.19" style=""/>
<ellipse fill="none" stroke="black" cx="446.59" cy="-881.91" rx="89.18" ry="89.18" style=""/>
<text text-anchor="middle" x="446.59" y="-877.71" font-family="Times,serif" font-size="14.00" style="">ARITHMETIC OP</text>
</g>
<!-- ARITHOP&#45;&gt;ARITHOPF -->
<g id="edge25" class="edge" data-name="ARITHOP-&gt;ARITHOPF">

<path fill="none" stroke="black" d="M251.39,-1055.34C275.02,-1034.23 326.76,-988.03 370.89,-948.62" style=""/>
<polygon fill="black" stroke="black" points="373.06,-951.37 378.19,-942.1 368.4,-946.15 373.06,-951.37" style=""/>
<text text-anchor="middle" x="306.34" y="-1035.41" font-family="Times,serif" font-size="15.00" fill="#0847cf" style="">+, -, *, /</text>
</g>
<!-- COMPOPF -->
<g id="node26" class="node" pointer-events="visible" data-name="COMPOPF">

<ellipse fill="none" stroke="black" cx="446.59" cy="-703.91" rx="66.25" ry="66.25" style=""/>
<ellipse fill="none" stroke="black" cx="446.59" cy="-703.91" rx="70.24" ry="70.24" style=""/>
<text text-anchor="middle" x="446.59" y="-699.71" font-family="Times,serif" font-size="14.00" style="">COMPARISON OP</text>
</g>
<!-- COMPOP&#45;&gt;COMPOPF -->
<g id="edge27" class="edge" data-name="COMPOP-&gt;COMPOPF">

<path fill="none" stroke="black" d="M245.09,-986.4C260.92,-948.29 303.53,-852.28 357.25,-783.91 364.96,-774.1 373.94,-764.46 383.17,-755.47" style=""/>
<polygon fill="black" stroke="black" points="385.37,-758.21 390.22,-748.79 380.55,-753.13 385.37,-758.21" style=""/>
<text text-anchor="middle" x="306.34" y="-924.41" font-family="Times,serif" font-size="15.00" fill="#0847cf" style="">&lt;, =</text>
</g>
<!-- ASSIGN2 -->
<g id="node28" class="node" pointer-events="visible" data-name="ASSIGN2">

<ellipse fill="none" stroke="black" cx="446.59" cy="-597.91" rx="18" ry="18" style=""/>
</g>
<!-- ASSIGN1&#45;&gt;ASSIGN2 -->
<g id="edge29" class="edge" data-name="ASSIGN1-&gt;ASSIGN2">

<path fill="none" stroke="black" d="M242.98,-912.56C246.45,-899.26 251.32,-880.45 255.43,-863.91 283.3,-751.87 268.75,-699.07 357.25,-624.91 374.16,-610.73 398.43,-604 417.25,-600.8" style=""/>
<polygon fill="black" stroke="black" points="417.52,-604.29 426.92,-599.41 416.53,-597.36 417.52,-604.29" style=""/>
<text text-anchor="middle" x="306.34" y="-775.41" font-family="Times,serif" font-size="15.00" fill="#0847cf" style="">:</text>
</g>
<!-- ASSIGNF -->
<g id="node29" class="node" pointer-events="visible" data-name="ASSIGNF">

<ellipse fill="none" stroke="black" cx="649.95" cy="-597.91" rx="65.62" ry="65.62" style=""/>
<ellipse fill="none" stroke="black" cx="649.95" cy="-597.91" rx="69.63" ry="69.63" style=""/>
<text text-anchor="middle" x="649.95" y="-593.71" font-family="Times,serif" font-size="14.00" style="">ASSIGNMENT OP</text>
</g>
<!-- ASSIGN2&#45;&gt;ASSIGNF -->
<g id="edge30" class="edge" data-name="ASSIGN2-&gt;ASSIGNF">

<path fill="none" stroke="black" d="M464.75,-597.91C487.87,-597.91 530.53,-597.91 568.99,-597.91" style=""/>
<polygon fill="black" stroke="black" points="568.71,-601.41 578.71,-597.91 568.71,-594.41 568.71,-601.41" style=""/>
<text text-anchor="middle" x="558.16" y="-602.41" font-family="Times,serif" font-size="15.00" fill="#0847cf" style="">=</text>
</g>
<!-- PARENF -->
<g id="node31" class="node" pointer-events="visible" data-name="PARENF">

<ellipse fill="none" stroke="black" cx="446.59" cy="-482.91" rx="75.35" ry="75.35" style=""/>
<ellipse fill="none" stroke="black" cx="446.59" cy="-482.91" rx="79.35" ry="79.35" style=""/>
<text text-anchor="middle" x="446.59" y="-478.71" font-family="Times,serif" font-size="14.00" style="">PARENTHESIS</text>
</g>
<!-- PAREN&#45;&gt;PARENF -->
<g id="edge32" class="edge" data-name="PAREN-&gt;PARENF">

<path fill="none" stroke="black" d="M241.4,-818.88C244.81,-798.14 250.56,-763.07 255.43,-732.91 263.53,-682.71 247.8,-663.83 273.43,-619.91 295.69,-581.77 332.97,-550.13 367.15,-526.9" style=""/>
<polygon fill="black" stroke="black" points="369.03,-529.86 375.43,-521.41 365.16,-524.02 369.03,-529.86" style=""/>
<text text-anchor="middle" x="306.34" y="-624.41" font-family="Times,serif" font-size="15.00" fill="#0847cf" style="">(, )</text>
</g>
<!-- SEMIF -->
<g id="node33" class="node" pointer-events="visible" data-name="SEMIF">

<ellipse fill="none" stroke="black" cx="446.59" cy="-313.91" rx="67.25" ry="67.25" style=""/>
<ellipse fill="none" stroke="black" cx="446.59" cy="-313.91" rx="71.24" ry="71.24" style=""/>
<text text-anchor="middle" x="446.59" y="-309.71" font-family="Times,serif" font-size="14.00" style="">SEMICOLON</text>
</g>
<!-- SEMICOLON&#45;&gt;SEMIF -->
<g id="edge34" class="edge" data-name="SEMICOLON-&gt;SEMIF">

<path fill="none" stroke="black" d="M239.74,-687.76C242.62,-654.7 251.09,-582.94 273.43,-526.91 299.17,-462.36 312.62,-448.19 357.25,-394.91 365.2,-385.41 374.24,-375.95 383.42,-367.02" style=""/>
<polygon fill="black" stroke="black" points="385.58,-369.79 390.41,-360.36 380.75,-364.72 385.58,-369.79" style=""/>
<text text-anchor="middle" x="306.34" y="-531.41" font-family="Times,serif" font-size="15.00" fill="#0847cf" style="">;</text>
</g>
<!-- COMMENT_BODY -->
<g id="node35" class="node" pointer-events="visible" data-name="COMMENT_BODY">

<ellipse fill="none" stroke="black" cx="446.59" cy="-170.91" rx="18" ry="18" style=""/>
</g>
<!-- COMMENT&#45;&gt;COMMENT_BODY -->
<g id="edge36" class="edge" data-name="COMMENT-&gt;COMMENT_BODY">

<path fill="none" stroke="black" d="M239.33,-478.54C241.95,-431.38 250.85,-307.37 273.43,-273.91 308.38,-222.13 378.87,-192.34 417.94,-179.15" style=""/>
<polygon fill="black" stroke="black" points="418.87,-182.53 427.31,-176.12 416.72,-175.87 418.87,-182.53" style=""/>
<text text-anchor="middle" x="306.34" y="-278.41" font-family="Times,serif" font-size="15.00" fill="#0847cf" style="">{</text>
</g>
<!-- COMMENT_BODY&#45;&gt;COMMENT_BODY -->
<g id="edge37" class="edge" data-name="COMMENT_BODY-&gt;COMMENT_BODY">

<path fill="none" stroke="black" d="M431.57,-180.86C420.23,-192.84 425.23,-206.91 446.59,-206.91 462.1,-206.91 468.99,-199.48 467.24,-190.83" style=""/>
<polygon fill="black" stroke="black" points="470.32,-189.16 462.35,-182.18 464.23,-192.61 470.32,-189.16" style=""/>
<text text-anchor="middle" x="446.59" y="-211.41" font-family="Times,serif" font-size="15.00" fill="#0847cf" style="">[^}]</text>
</g>
<!-- COMMENTF -->
<g id="node36" class="node" pointer-events="visible" data-name="COMMENTF">

<ellipse fill="none" stroke="black" cx="649.95" cy="-181.91" rx="60.3" ry="60.3" style=""/>
<ellipse fill="none" stroke="black" cx="649.95" cy="-181.91" rx="64.29" ry="64.29" style=""/>
<text text-anchor="middle" x="649.95" y="-177.71" font-family="Times,serif" font-size="14.00" style="">COMMENT</text>
</g>
<!-- COMMENT_BODY&#45;&gt;COMMENTF -->
<g id="edge38" class="edge" data-name="COMMENT_BODY-&gt;COMMENTF">

<path fill="none" stroke="black" d="M464.75,-171.85C488.87,-173.17 534.28,-175.65 573.97,-177.82" style=""/>
<polygon fill="black" stroke="black" points="573.58,-181.3 583.75,-178.35 573.96,-174.31 573.58,-181.3" style=""/>
<text text-anchor="middle" x="558.16" y="-181.41" font-family="Times,serif" font-size="15.00" fill="#0847cf" style="">}</text>
</g>
<!-- STRING2 -->
<g id="node38" class="node" pointer-events="visible" data-name="STRING2">

<ellipse fill="none" stroke="black" cx="446.59" cy="-70.91" rx="18" ry="18" style=""/>
</g>
<!-- STRING1&#45;&gt;STRING2 -->
<g id="edge40" class="edge" data-name="STRING1-&gt;STRING2">

<path fill="none" stroke="black" d="M255.03,-127.94C290.56,-117.31 374.28,-92.25 417.97,-79.18" style=""/>
<polygon fill="black" stroke="black" points="418.88,-82.56 427.45,-76.34 416.87,-75.85 418.88,-82.56" style=""/>
<text text-anchor="middle" x="306.34" y="-125.41" font-family="Times,serif" font-size="15.00" fill="#0847cf" style="">"</text>
</g>
<!-- STRING2&#45;&gt;STRING2 -->
<g id="edge41" class="edge" data-name="STRING2-&gt;STRING2">

<path fill="none" stroke="black" d="M431.57,-80.86C420.23,-92.84 425.23,-106.91 446.59,-106.91 462.1,-106.91 468.99,-99.48 467.24,-90.83" style=""/>
<polygon fill="black" stroke="black" points="470.32,-89.16 462.35,-82.18 464.23,-92.61 470.32,-89.16" style=""/>
<text text-anchor="middle" x="446.59" y="-111.41" font-family="Times,serif" font-size="15.00" fill="#0847cf" style="">[^"]</text>
</g>
<!-- STRINGF -->
<g id="node39" class="node" pointer-events="visible" data-name="STRINGF">

<ellipse fill="none" stroke="black" cx="649.95" cy="-49.91" rx="45.83" ry="45.83" style=""/>
<ellipse fill="none" stroke="black" cx="649.95" cy="-49.91" rx="49.82" ry="49.82" style=""/>
<text text-anchor="middle" x="649.95" y="-45.71" font-family="Times,serif" font-size="14.00" style="">STRING</text>
</g>
<!-- STRING2&#45;&gt;STRINGF -->
<g id="edge42" class="edge" data-name="STRING2-&gt;STRINGF">

<path fill="none" stroke="black" d="M464.75,-69.12C491.94,-66.29 546.16,-60.63 588.78,-56.19" style=""/>
<polygon fill="black" stroke="black" points="589.08,-59.67 598.67,-55.15 588.36,-52.71 589.08,-59.67" style=""/>
<text text-anchor="middle" x="558.16" y="-64.41" font-family="Times,serif" font-size="15.00" fill="#0847cf" style="">"</text>
</g>
</g>
</svg>