<?xml version="1.0" standalone="no"?>
<svg xmlns="http://www.w3.org/2000/svg" xmlns:xlink="http://www.w3.org/1999/xlink" width="1372pt" height="1881pt" viewBox="0.00 0.00 1371.54 1880.61">
<g id="graph0" class="graph" transform="translate(34.374629857604646,1683.551203304815) scale(0.8479877934376242)" data-name="TinyNFA">

<polygon fill="white" stroke="none" points="-4,4 -4,-1876.61 1367.54,-1876.61 1367.54,4 -4,4" style=""/>
<!-- S0 -->
<g id="node1" class="node" pointer-events="visible" data-name="S0">

<ellipse fill="black" stroke="black" cx="1.8" cy="-1174.91" rx="1.8" ry="1.8" style=""/>
</g>
<!-- start -->
<g id="node2" class="node" pointer-events="visible" data-name="start">

<ellipse fill="none" stroke="black" cx="121.93" cy="-1174.91" rx="54" ry="54" style=""/>
</g>
<!-- S0&#45;&gt;start -->
<g id="edge1" class="edge" data-name="S0-&gt;start">

<path fill="none" stroke="black" d="M3.55,-1174.91C8,-1174.91 31.45,-1174.91 56.24,-1174.91" style=""/>
<polygon fill="black" stroke="black" points="56.15,-1178.41 66.15,-1174.91 56.15,-1171.41 56.15,-1178.41" style=""/>
<text text-anchor="middle" x="35.77" y="-1179.41" font-family="Times,serif" font-size="15.00" fill="#0847cf" style="">Start</text>
</g>
<!-- KW_if1 -->
<g id="node3" class="node" pointer-events="visible" data-name="KW_if1">

<ellipse fill="none" stroke="black" cx="237.43" cy="-1727.91" rx="18" ry="18" style=""/>
</g>
<!-- start&#45;&gt;KW_if1 -->
<g id="edge2" class="edge" data-name="start-&gt;KW_if1">

<path fill="none" stroke="black" d="M131.21,-1228.58C143.25,-1304.51 167.1,-1447.45 193.93,-1567.91 204.34,-1614.63 219.19,-1668.28 228.3,-1700.07" style=""/>
<polygon fill="black" stroke="black" points="224.82,-1700.65 230.96,-1709.29 231.55,-1698.71 224.82,-1700.65" style=""/>
<text text-anchor="middle" x="197.68" y="-1602.41" font-family="Times,serif" font-size="15.00" fill="#0847cf" style="">ε</text>
</g>
<!-- KW_then1 -->
<g id="node6" class="node" pointer-events="visible" data-name="KW_then1">

<ellipse fill="none" stroke="black" cx="237.43" cy="-1627.91" rx="18" ry="18" style=""/>
</g>
<!-- start&#45;&gt;KW_then1 -->
<g id="edge5" class="edge" data-name="start-&gt;KW_then1">

<path fill="none" stroke="black" d="M132.72,-1228.05C145.36,-1295.05 168.76,-1413.59 193.93,-1513.91 203.73,-1552.99 202.87,-1564.18 219.43,-1600.91 219.85,-1601.84 220.29,-1602.77 220.76,-1603.71" style=""/>
<polygon fill="black" stroke="black" points="217.58,-1605.19 225.56,-1612.15 223.66,-1601.73 217.58,-1605.19" style=""/>
<text text-anchor="middle" x="197.68" y="-1550.41" font-family="Times,serif" font-size="15.00" fill="#0847cf" style="">ε</text>
</g>
<!-- KW_else1 -->
<g id="node11" class="node" pointer-events="visible" data-name="KW_else1">

<ellipse fill="none" stroke="black" cx="237.43" cy="-1573.91" rx="18" ry="18" style=""/>
</g>
<!-- start&#45;&gt;KW_else1 -->
<g id="edge10" class="edge" data-name="start-&gt;KW_else1">

<path fill="none" stroke="black" d="M135.05,-1227.68C148.57,-1285.6 171.48,-1381.23 193.93,-1462.91 204.27,-1500.53 203.22,-1511.42 219.43,-1546.91 219.85,-1547.84 220.3,-1548.77 220.77,-1549.7" style=""/>
<polygon fill="black" stroke="black" points="217.59,-1551.19 225.59,-1558.14 223.67,-1547.72 217.59,-1551.19" style=""/>
<text text-anchor="middle" x="197.68" y="-1496.41" font-family="Times,serif" font-size="15.00" fill="#0847cf" style="">ε</text>
</g>
<!-- KW_repeat1 -->
<g id="node16" class="node" pointer-events="visible" data-name="KW_repeat1">

<ellipse fill="none" stroke="black" cx="237.43" cy="-1519.91" rx="18" ry="18" style=""/>
</g>
<!-- start&#45;&gt;KW_repeat1 -->
<g id="edge15" class="edge" data-name="start-&gt;KW_repeat1">

<path fill="none" stroke="black" d="M137.61,-1226.79C151.6,-1275.71 173.49,-1351.01 193.93,-1415.91 204.63,-1449.89 204.43,-1459.6 219.43,-1491.91 219.94,-1493.02 220.49,-1494.14 221.07,-1495.26" style=""/>
<polygon fill="black" stroke="black" points="217.93,-1496.82 225.88,-1503.82 224.03,-1493.39 217.93,-1496.82" style=""/>
<text text-anchor="middle" x="197.68" y="-1445.41" font-family="Times,serif" font-size="15.00" fill="#0847cf" style="">ε</text>
</g>
<!-- KW_until1 -->
<g id="node23" class="node" pointer-events="visible" data-name="KW_until1">

<ellipse fill="none" stroke="black" cx="237.43" cy="-1464.91" rx="18" ry="18" style=""/>
</g>
<!-- start&#45;&gt;KW_until1 -->
<g id="edge22" class="edge" data-name="start-&gt;KW_until1">

<path fill="none" stroke="black" d="M139.02,-1226.52C156.38,-1279.98 186.04,-1365.39 219.43,-1435.91 220.05,-1437.22 220.71,-1438.54 221.39,-1439.87" style=""/>
<polygon fill="black" stroke="black" points="218.27,-1441.46 226.18,-1448.51 224.39,-1438.07 218.27,-1441.46" style=""/>
<text text-anchor="middle" x="197.68" y="-1398.41" font-family="Times,serif" font-size="15.00" fill="#0847cf" style="">ε</text>
</g>
<!-- KW_read1 -->
<g id="node29" class="node" pointer-events="visible" data-name="KW_read1">

<ellipse fill="none" stroke="black" cx="237.43" cy="-1408.91" rx="18" ry="18" style=""/>
</g>
<!-- start&#45;&gt;KW_read1 -->
<g id="edge28" class="edge" data-name="start-&gt;KW_read1">

<path fill="none" stroke="black" d="M145.35,-1224.11C164.42,-1265.46 192.87,-1325.97 219.43,-1377.91 220.42,-1379.84 221.45,-1381.82 222.51,-1383.81" style=""/>
<polygon fill="black" stroke="black" points="219.22,-1385.09 227.06,-1392.22 225.38,-1381.76 219.22,-1385.09" style=""/>
<text text-anchor="middle" x="197.68" y="-1343.41" font-family="Times,serif" font-size="15.00" fill="#0847cf" style="">ε</text>
</g>
<!-- KW_write1 -->
<g id="node34" class="node" pointer-events="visible" data-name="KW_write1">

<ellipse fill="none" stroke="black" cx="237.43" cy="-1350.91" rx="18" ry="18" style=""/>
</g>
<!-- start&#45;&gt;KW_write1 -->
<g id="edge33" class="edge" data-name="start-&gt;KW_write1">

<path fill="none" stroke="black" d="M152.16,-1220.24C173.94,-1254.01 202.86,-1298.86 220.53,-1326.26" style=""/>
<polygon fill="black" stroke="black" points="217.54,-1328.07 225.9,-1334.58 223.42,-1324.28 217.54,-1328.07" style=""/>
<text text-anchor="middle" x="197.68" y="-1298.41" font-family="Times,serif" font-size="15.00" fill="#0847cf" style="">ε</text>
</g>
<!-- KW_end1 -->
<g id="node40" class="node" pointer-events="visible" data-name="KW_end1">

<ellipse fill="none" stroke="black" cx="237.43" cy="-1289.91" rx="18" ry="18" style=""/>
</g>
<!-- start&#45;&gt;KW_end1 -->
<g id="edge39" class="edge" data-name="start-&gt;KW_end1">

<path fill="none" stroke="black" d="M160.41,-1212.88C179.04,-1231.76 200.82,-1253.83 216.28,-1269.49" style=""/>
<polygon fill="black" stroke="black" points="213.58,-1271.74 223.09,-1276.4 218.56,-1266.82 213.58,-1271.74" style=""/>
<text text-anchor="middle" x="197.68" y="-1256.41" font-family="Times,serif" font-size="15.00" fill="#0847cf" style="">ε</text>
</g>
<!-- ID1 -->
<g id="node44" class="node" pointer-events="visible" data-name="ID1">

<ellipse fill="none" stroke="black" cx="237.43" cy="-1220.91" rx="18" ry="18" style=""/>
</g>
<!-- start&#45;&gt;ID1 -->
<g id="edge43" class="edge" data-name="start-&gt;ID1">

<path fill="none" stroke="black" d="M172.38,-1194.95C185.29,-1200.18 198.7,-1205.62 209.9,-1210.16" style=""/>
<polygon fill="black" stroke="black" points="208.27,-1213.28 218.86,-1213.79 210.9,-1206.79 208.27,-1213.28" style=""/>
<text text-anchor="middle" x="197.68" y="-1210.41" font-family="Times,serif" font-size="15.00" fill="#0847cf" style="">ε</text>
</g>
<!-- NUM1 -->
<g id="node46" class="node" pointer-events="visible" data-name="NUM1">

<ellipse fill="none" stroke="black" cx="237.43" cy="-1136.91" rx="18" ry="18" style=""/>
</g>
<!-- start&#45;&gt;NUM1 -->
<g id="edge46" class="edge" data-name="start-&gt;NUM1">

<path fill="none" stroke="black" d="M173.7,-1157.91C185.93,-1153.82 198.53,-1149.6 209.19,-1146.03" style=""/>
<polygon fill="black" stroke="black" points="210.1,-1149.42 218.47,-1142.92 207.88,-1142.78 210.1,-1149.42" style=""/>
<text text-anchor="middle" x="197.68" y="-1154.41" font-family="Times,serif" font-size="15.00" fill="#0847cf" style="">ε</text>
</g>
<!-- ARITHOP -->
<g id="node48" class="node" pointer-events="visible" data-name="ARITHOP">

<ellipse fill="none" stroke="black" cx="237.43" cy="-1080.91" rx="18" ry="18" style=""/>
</g>
<!-- start&#45;&gt;ARITHOP -->
<g id="edge49" class="edge" data-name="start-&gt;ARITHOP">

<path fill="none" stroke="black" d="M164.23,-1140.71C181.18,-1126.67 200.12,-1110.98 214.35,-1099.2" style=""/>
<polygon fill="black" stroke="black" points="216.31,-1102.12 221.78,-1093.04 211.85,-1096.73 216.31,-1102.12" style=""/>
<text text-anchor="middle" x="197.68" y="-1118.41" font-family="Times,serif" font-size="15.00" fill="#0847cf" style="">ε</text>
</g>
<!-- COMPOP -->
<g id="node50" class="node" pointer-events="visible" data-name="COMPOP">

<ellipse fill="none" stroke="black" cx="237.43" cy="-1022.91" rx="18" ry="18" style=""/>
</g>
<!-- start&#45;&gt;COMPOP -->
<g id="edge51" class="edge" data-name="start-&gt;COMPOP">

<path fill="none" stroke="black" d="M155.15,-1131.76C175.93,-1103.93 202.15,-1068.82 219.09,-1046.13" style=""/>
<polygon fill="black" stroke="black" points="221.88,-1048.25 225.06,-1038.14 216.27,-1044.06 221.88,-1048.25" style=""/>
<text text-anchor="middle" x="197.68" y="-1080.41" font-family="Times,serif" font-size="15.00" fill="#0847cf" style="">ε</text>
</g>
<!-- ASSIGN1 -->
<g id="node52" class="node" pointer-events="visible" data-name="ASSIGN1">

<ellipse fill="none" stroke="black" cx="237.43" cy="-960.91" rx="18" ry="18" style=""/>
</g>
<!-- start&#45;&gt;ASSIGN1 -->
<g id="edge53" class="edge" data-name="start-&gt;ASSIGN1">

<path fill="none" stroke="black" d="M148.12,-1127.42C171.2,-1083.9 204.5,-1021.12 222.91,-986.41" style=""/>
<polygon fill="black" stroke="black" points="225.81,-988.4 227.41,-977.92 219.63,-985.12 225.81,-988.4" style=""/>
<text text-anchor="middle" x="197.68" y="-1040.41" font-family="Times,serif" font-size="15.00" fill="#0847cf" style="">ε</text>
</g>
<!-- PUNCTUATION -->
<g id="node55" class="node" pointer-events="visible" data-name="PUNCTUATION">

<ellipse fill="none" stroke="black" cx="237.43" cy="-891.91" rx="18" ry="18" style=""/>
</g>
<!-- start&#45;&gt;PUNCTUATION -->
<g id="edge56" class="edge" data-name="start-&gt;PUNCTUATION">

<path fill="none" stroke="black" d="M142.84,-1125.04C162.31,-1076.29 192.84,-999.97 219.43,-933.91 221.37,-929.1 223.43,-923.98 225.43,-919.04" style=""/>
<polygon fill="black" stroke="black" points="228.56,-920.65 229.06,-910.07 222.07,-918.02 228.56,-920.65" style=""/>
<text text-anchor="middle" x="197.68" y="-997.41" font-family="Times,serif" font-size="15.00" fill="#0847cf" style="">ε</text>
</g>
<!-- SEMICOLON -->
<g id="node57" class="node" pointer-events="visible" data-name="SEMICOLON">

<ellipse fill="none" stroke="black" cx="237.43" cy="-807.91" rx="18" ry="18" style=""/>
</g>
<!-- start&#45;&gt;SEMICOLON -->
<g id="edge58" class="edge" data-name="start-&gt;SEMICOLON">

<path fill="none" stroke="black" d="M138.83,-1123.49C163.13,-1044.92 208.69,-897.59 227.73,-836.05" style=""/>
<polygon fill="black" stroke="black" points="231.01,-837.3 230.62,-826.71 224.32,-835.23 231.01,-837.3" style=""/>
<text text-anchor="middle" x="197.68" y="-941.41" font-family="Times,serif" font-size="15.00" fill="#0847cf" style="">ε</text>
</g>
<!-- COMMA -->
<g id="node59" class="node" pointer-events="visible" data-name="COMMA">

<ellipse fill="none" stroke="black" cx="237.43" cy="-693.91" rx="18" ry="18" style=""/>
</g>
<!-- start&#45;&gt;COMMA -->
<g id="edge60" class="edge" data-name="start-&gt;COMMA">

<path fill="none" stroke="black" d="M135.29,-1122.52C159.23,-1021.08 211.17,-800.94 229.7,-722.43" style=""/>
<polygon fill="black" stroke="black" points="233.04,-723.51 231.93,-712.97 226.23,-721.9 233.04,-723.51" style=""/>
<text text-anchor="middle" x="197.68" y="-867.41" font-family="Times,serif" font-size="15.00" fill="#0847cf" style="">ε</text>
</g>
<!-- COMMENT -->
<g id="node61" class="node" pointer-events="visible" data-name="COMMENT">

<ellipse fill="none" stroke="black" cx="237.43" cy="-519.91" rx="18" ry="18" style=""/>
</g>
<!-- start&#45;&gt;COMMENT -->
<g id="edge62" class="edge" data-name="start-&gt;COMMENT">

<path fill="none" stroke="black" d="M133.13,-1121.82C148.57,-1040.86 178.51,-881.6 201.43,-745.91 213.34,-675.39 225.82,-592.21 232.17,-549.11" style=""/>
<polygon fill="black" stroke="black" points="235.62,-549.71 233.61,-539.31 228.69,-548.69 235.62,-549.71" style=""/>
<text text-anchor="middle" x="197.68" y="-784.41" font-family="Times,serif" font-size="15.00" fill="#0847cf" style="">ε</text>
</g>
<!-- STRING1 -->
<g id="node64" class="node" pointer-events="visible" data-name="STRING1">

<ellipse fill="none" stroke="black" cx="237.43" cy="-225.91" rx="18" ry="18" style=""/>
</g>
<!-- start&#45;&gt;STRING1 -->
<g id="edge66" class="edge" data-name="start-&gt;STRING1">

<path fill="none" stroke="black" d="M129.36,-1121.17C150.41,-945.12 216.88,-389.39 232.92,-255.26" style=""/>
<polygon fill="black" stroke="black" points="236.38,-255.8 234.09,-245.46 229.43,-254.97 236.38,-255.8" style=""/>
<text text-anchor="middle" x="197.68" y="-564.41" font-family="Times,serif" font-size="15.00" fill="#0847cf" style="">ε</text>
</g>
<!-- KW_if2 -->
<g id="node4" class="node" pointer-events="visible" data-name="KW_if2">

<ellipse fill="none" stroke="black" cx="422.76" cy="-1753.91" rx="18" ry="18" style=""/>
</g>
<!-- KW_if1&#45;&gt;KW_if2 -->
<g id="edge3" class="edge" data-name="KW_if1-&gt;KW_if2">

<path fill="none" stroke="black" d="M255.68,-1730.36C287.27,-1734.84 354.73,-1744.4 393.24,-1749.87" style=""/>
<polygon fill="black" stroke="black" points="392.53,-1753.3 402.92,-1751.24 393.51,-1746.37 392.53,-1753.3" style=""/>
<text text-anchor="middle" x="297.24" y="-1743.41" font-family="Times,serif" font-size="15.00" fill="#0847cf" style="">i</text>
</g>
<!-- KW_if3 -->
<g id="node5" class="node" pointer-events="visible" data-name="KW_if3">

<ellipse fill="none" stroke="black" cx="615.32" cy="-1765.91" rx="40.58" ry="40.58" style=""/>
<ellipse fill="none" stroke="black" cx="615.32" cy="-1765.91" rx="44.58" ry="44.58" style=""/>
<text text-anchor="middle" x="615.32" y="-1761.71" font-family="Times,serif" font-size="14.00" style="">IF_KW</text>
</g>
<!-- KW_if2&#45;&gt;KW_if3 -->
<g id="edge4" class="edge" data-name="KW_if2-&gt;KW_if3">

<path fill="none" stroke="black" d="M441,-1755C467.5,-1756.67 519.34,-1759.93 559.45,-1762.46" style=""/>
<polygon fill="black" stroke="black" points="558.98,-1765.93 569.18,-1763.07 559.42,-1758.95 558.98,-1765.93" style=""/>
<text text-anchor="middle" x="528.69" y="-1764.41" font-family="Times,serif" font-size="15.00" fill="#0847cf" style="">f</text>
</g>
<!-- KW_then2 -->
<g id="node7" class="node" pointer-events="visible" data-name="KW_then2">

<ellipse fill="none" stroke="black" cx="422.76" cy="-1684.91" rx="18" ry="18" style=""/>
</g>
<!-- KW_then1&#45;&gt;KW_then2 -->
<g id="edge6" class="edge" data-name="KW_then1-&gt;KW_then2">

<path fill="none" stroke="black" d="M255.02,-1633.07C286.57,-1642.88 355.51,-1664.31 394.13,-1676.32" style=""/>
<polygon fill="black" stroke="black" points="393.04,-1679.65 403.63,-1679.27 395.12,-1672.96 393.04,-1679.65" style=""/>
<text text-anchor="middle" x="297.24" y="-1657.41" font-family="Times,serif" font-size="15.00" fill="#0847cf" style="">t</text>
</g>
<!-- KW_then3 -->
<g id="node8" class="node" pointer-events="visible" data-name="KW_then3">

<ellipse fill="none" stroke="black" cx="615.32" cy="-1684.91" rx="18" ry="18" style=""/>
</g>
<!-- KW_then2&#45;&gt;KW_then3 -->
<g id="edge7" class="edge" data-name="KW_then2-&gt;KW_then3">

<path fill="none" stroke="black" d="M441,-1684.91C473.8,-1684.91 545.46,-1684.91 585.6,-1684.91" style=""/>
<polygon fill="black" stroke="black" points="585.46,-1688.41 595.46,-1684.91 585.46,-1681.41 585.46,-1688.41" style=""/>
<text text-anchor="middle" x="528.69" y="-1689.41" font-family="Times,serif" font-size="15.00" fill="#0847cf" style="">h</text>
</g>
<!-- KW_then4 -->
<g id="node9" class="node" pointer-events="visible" data-name="KW_then4">

<ellipse fill="none" stroke="black" cx="779.02" cy="-1779.91" rx="18" ry="18" style=""/>
</g>
<!-- KW_then3&#45;&gt;KW_then4 -->
<g id="edge8" class="edge" data-name="KW_then3-&gt;KW_then4">

<path fill="none" stroke="black" d="M632.64,-1690.81C645.7,-1695.78 664.32,-1703.42 679.72,-1711.91 706.92,-1726.91 735.92,-1747.62 755.32,-1762.23" style=""/>
<polygon fill="black" stroke="black" points="752.99,-1764.86 763.07,-1768.14 757.24,-1759.3 752.99,-1764.86" style=""/>
<text text-anchor="middle" x="701.47" y="-1731.41" font-family="Times,serif" font-size="15.00" fill="#0847cf" style="">e</text>
</g>
<!-- KW_then5 -->
<g id="node10" class="node" pointer-events="visible" data-name="KW_then5">

<ellipse fill="none" stroke="black" cx="940.56" cy="-1810.91" rx="57.89" ry="57.89" style=""/>
<ellipse fill="none" stroke="black" cx="940.56" cy="-1810.91" rx="61.9" ry="61.9" style=""/>
<text text-anchor="middle" x="940.56" y="-1806.71" font-family="Times,serif" font-size="14.00" style="">THEN_KW</text>
</g>
<!-- KW_then4&#45;&gt;KW_then5 -->
<g id="edge9" class="edge" data-name="KW_then4-&gt;KW_then5">

<path fill="none" stroke="black" d="M797.09,-1783.23C814.25,-1786.56 841.87,-1791.93 868.25,-1797.05" style=""/>
<polygon fill="black" stroke="black" points="867.47,-1800.47 877.95,-1798.94 868.81,-1793.6 867.47,-1800.47" style=""/>
<text text-anchor="middle" x="856.57" y="-1799.41" font-family="Times,serif" font-size="15.00" fill="#0847cf" style="">n</text>
</g>
<!-- KW_else2 -->
<g id="node12" class="node" pointer-events="visible" data-name="KW_else2">

<ellipse fill="none" stroke="black" cx="422.76" cy="-1630.91" rx="18" ry="18" style=""/>
</g>
<!-- KW_else1&#45;&gt;KW_else2 -->
<g id="edge11" class="edge" data-name="KW_else1-&gt;KW_else2">

<path fill="none" stroke="black" d="M255.02,-1579.07C286.57,-1588.88 355.51,-1610.31 394.13,-1622.32" style=""/>
<polygon fill="black" stroke="black" points="393.04,-1625.65 403.63,-1625.27 395.12,-1618.96 393.04,-1625.65" style=""/>
<text text-anchor="middle" x="297.24" y="-1603.41" font-family="Times,serif" font-size="15.00" fill="#0847cf" style="">e</text>
</g>
<!-- KW_else3 -->
<g id="node13" class="node" pointer-events="visible" data-name="KW_else3">

<ellipse fill="none" stroke="black" cx="615.32" cy="-1630.91" rx="18" ry="18" style=""/>
</g>
<!-- KW_else2&#45;&gt;KW_else3 -->
<g id="edge12" class="edge" data-name="KW_else2-&gt;KW_else3">

<path fill="none" stroke="black" d="M441,-1630.91C473.8,-1630.91 545.46,-1630.91 585.6,-1630.91" style=""/>
<polygon fill="black" stroke="black" points="585.46,-1634.41 595.46,-1630.91 585.46,-1627.41 585.46,-1634.41" style=""/>
<text text-anchor="middle" x="528.69" y="-1635.41" font-family="Times,serif" font-size="15.00" fill="#0847cf" style="">l</text>
</g>
<!-- KW_else4 -->
<g id="node14" class="node" pointer-events="visible" data-name="KW_else4">

<ellipse fill="none" stroke="black" cx="779.02" cy="-1651.91" rx="18" ry="18" style=""/>
</g>
<!-- KW_else3&#45;&gt;KW_else4 -->
<g id="edge13" class="edge" data-name="KW_else3-&gt;KW_else4">

<path fill="none" stroke="black" d="M633.62,-1633.16C661.34,-1636.76 715.98,-1643.85 749.52,-1648.21" style=""/>
<polygon fill="black" stroke="black" points="748.97,-1651.67 759.33,-1649.48 749.87,-1644.73 748.97,-1651.67" style=""/>
<text text-anchor="middle" x="701.47" y="-1646.41" font-family="Times,serif" font-size="15.00" fill="#0847cf" style="">s</text>
</g>
<!-- KW_else5 -->
<g id="node15" class="node" pointer-events="visible" data-name="KW_else5">

<ellipse fill="none" stroke="black" cx="940.56" cy="-1671.91" rx="55.04" ry="55.04" style=""/>
<ellipse fill="none" stroke="black" cx="940.56" cy="-1671.91" rx="59.04" ry="59.04" style=""/>
<text text-anchor="middle" x="940.56" y="-1667.71" font-family="Times,serif" font-size="14.00" style="">ELSE_KW</text>
</g>
<!-- KW_else4&#45;&gt;KW_else5 -->
<g id="edge14" class="edge" data-name="KW_else4-&gt;KW_else5">

<path fill="none" stroke="black" d="M797.09,-1654.05C814.67,-1656.26 843.24,-1659.84 870.19,-1663.22" style=""/>
<polygon fill="black" stroke="black" points="869.75,-1666.69 880.1,-1664.46 870.62,-1659.74 869.75,-1666.69" style=""/>
<text text-anchor="middle" x="856.57" y="-1666.41" font-family="Times,serif" font-size="15.00" fill="#0847cf" style="">e</text>
</g>
<!-- KW_repeat2 -->
<g id="node17" class="node" pointer-events="visible" data-name="KW_repeat2">

<ellipse fill="none" stroke="black" cx="422.76" cy="-1576.91" rx="18" ry="18" style=""/>
</g>
<!-- KW_repeat1&#45;&gt;KW_repeat2 -->
<g id="edge16" class="edge" data-name="KW_repeat1-&gt;KW_repeat2">

<path fill="none" stroke="black" d="M254.73,-1526.22C260.6,-1528.43 267.28,-1530.86 273.43,-1532.91 315.27,-1546.87 364.46,-1561.02 394.36,-1569.38" style=""/>
<polygon fill="black" stroke="black" points="393.15,-1572.68 403.72,-1571.98 395.03,-1565.93 393.15,-1572.68" style=""/>
<text text-anchor="middle" x="297.24" y="-1551.41" font-family="Times,serif" font-size="15.00" fill="#0847cf" style="">r</text>
</g>
<!-- KW_repeat3 -->
<g id="node18" class="node" pointer-events="visible" data-name="KW_repeat3">

<ellipse fill="none" stroke="black" cx="615.32" cy="-1576.91" rx="18" ry="18" style=""/>
</g>
<!-- KW_repeat2&#45;&gt;KW_repeat3 -->
<g id="edge17" class="edge" data-name="KW_repeat2-&gt;KW_repeat3">

<path fill="none" stroke="black" d="M441,-1576.91C473.8,-1576.91 545.46,-1576.91 585.6,-1576.91" style=""/>
<polygon fill="black" stroke="black" points="585.46,-1580.41 595.46,-1576.91 585.46,-1573.41 585.46,-1580.41" style=""/>
<text text-anchor="middle" x="528.69" y="-1581.41" font-family="Times,serif" font-size="15.00" fill="#0847cf" style="">e</text>
</g>
<!-- KW_repeat4 -->
<g id="node19" class="node" pointer-events="visible" data-name="KW_repeat4">

<ellipse fill="none" stroke="black" cx="779.02" cy="-1576.91" rx="18" ry="18" style=""/>
</g>
<!-- KW_repeat3&#45;&gt;KW_repeat4 -->
<g id="edge18" class="edge" data-name="KW_repeat3-&gt;KW_repeat4">

<path fill="none" stroke="black" d="M633.62,-1576.91C661.34,-1576.91 715.98,-1576.91 749.52,-1576.91" style=""/>
<polygon fill="black" stroke="black" points="749.32,-1580.41 759.32,-1576.91 749.32,-1573.41 749.32,-1580.41" style=""/>
<text text-anchor="middle" x="701.47" y="-1581.41" font-family="Times,serif" font-size="15.00" fill="#0847cf" style="">p</text>
</g>
<!-- KW_repeat5 -->
<g id="node20" class="node" pointer-events="visible" data-name="KW_repeat5">

<ellipse fill="none" stroke="black" cx="940.56" cy="-1576.91" rx="18" ry="18" style=""/>
</g>
<!-- KW_repeat4&#45;&gt;KW_repeat5 -->
<g id="edge19" class="edge" data-name="KW_repeat4-&gt;KW_repeat5">

<path fill="none" stroke="black" d="M797.39,-1576.91C824.73,-1576.91 878.04,-1576.91 911.05,-1576.91" style=""/>
<polygon fill="black" stroke="black" points="910.69,-1580.41 920.69,-1576.91 910.69,-1573.41 910.69,-1580.41" style=""/>
<text text-anchor="middle" x="856.57" y="-1581.41" font-family="Times,serif" font-size="15.00" fill="#0847cf" style="">e</text>
</g>
<!-- KW_repeat6 -->
<g id="node21" class="node" pointer-events="visible" data-name="KW_repeat6">

<ellipse fill="none" stroke="black" cx="1111.98" cy="-1599.91" rx="18" ry="18" style=""/>
</g>
<!-- KW_repeat5&#45;&gt;KW_repeat6 -->
<g id="edge20" class="edge" data-name="KW_repeat5-&gt;KW_repeat6">

<path fill="none" stroke="black" d="M958.73,-1579.24C987.91,-1583.2 1047.41,-1591.28 1082.77,-1596.08" style=""/>
<polygon fill="black" stroke="black" points="1081.88,-1599.49 1092.26,-1597.37 1082.82,-1592.56 1081.88,-1599.49" style=""/>
<text text-anchor="middle" x="1024.13" y="-1592.41" font-family="Times,serif" font-size="15.00" fill="#0847cf" style="">a</text>
</g>
<!-- KW_repeat7 -->
<g id="node22" class="node" pointer-events="visible" data-name="KW_repeat7">

<ellipse fill="none" stroke="black" cx="1291.11" cy="-1599.91" rx="68.38" ry="68.38" style=""/>
<ellipse fill="none" stroke="black" cx="1291.11" cy="-1599.91" rx="72.37" ry="72.37" style=""/>
<text text-anchor="middle" x="1291.11" y="-1595.71" font-family="Times,serif" font-size="14.00" style="">REPEAT_KW</text>
</g>
<!-- KW_repeat6&#45;&gt;KW_repeat7 -->
<g id="edge21" class="edge" data-name="KW_repeat6-&gt;KW_repeat7">

<path fill="none" stroke="black" d="M1130.29,-1599.91C1148.34,-1599.91 1178.01,-1599.91 1206.91,-1599.91" style=""/>
<polygon fill="black" stroke="black" points="1206.83,-1603.41 1216.83,-1599.91 1206.83,-1596.41 1206.83,-1603.41" style=""/>
<text text-anchor="middle" x="1198.59" y="-1604.41" font-family="Times,serif" font-size="15.00" fill="#0847cf" style="">t</text>
</g>
<!-- KW_until2 -->
<g id="node24" class="node" pointer-events="visible" data-name="KW_until2">

<ellipse fill="none" stroke="black" cx="422.76" cy="-1522.91" rx="18" ry="18" style=""/>
</g>
<!-- KW_until1&#45;&gt;KW_until2 -->
<g id="edge23" class="edge" data-name="KW_until1-&gt;KW_until2">

<path fill="none" stroke="black" d="M255.02,-1470.16C286.57,-1480.14 355.51,-1501.95 394.13,-1514.17" style=""/>
<polygon fill="black" stroke="black" points="393.04,-1517.5 403.63,-1517.18 395.15,-1510.82 393.04,-1517.5" style=""/>
<text text-anchor="middle" x="297.24" y="-1494.41" font-family="Times,serif" font-size="15.00" fill="#0847cf" style="">u</text>
</g>
<!-- KW_until3 -->
<g id="node25" class="node" pointer-events="visible" data-name="KW_until3">

<ellipse fill="none" stroke="black" cx="615.32" cy="-1522.91" rx="18" ry="18" style=""/>
</g>
<!-- KW_until2&#45;&gt;KW_until3 -->
<g id="edge24" class="edge" data-name="KW_until2-&gt;KW_until3">

<path fill="none" stroke="black" d="M441,-1522.91C473.8,-1522.91 545.46,-1522.91 585.6,-1522.91" style=""/>
<polygon fill="black" stroke="black" points="585.46,-1526.41 595.46,-1522.91 585.46,-1519.41 585.46,-1526.41" style=""/>
<text text-anchor="middle" x="528.69" y="-1527.41" font-family="Times,serif" font-size="15.00" fill="#0847cf" style="">n</text>
</g>
<!-- KW_until4 -->
<g id="node26" class="node" pointer-events="visible" data-name="KW_until4">

<ellipse fill="none" stroke="black" cx="779.02" cy="-1522.91" rx="18" ry="18" style=""/>
</g>
<!-- KW_until3&#45;&gt;KW_until4 -->
<g id="edge25" class="edge" data-name="KW_until3-&gt;KW_until4">

<path fill="none" stroke="black" d="M633.62,-1522.91C661.34,-1522.91 715.98,-1522.91 749.52,-1522.91" style=""/>
<polygon fill="black" stroke="black" points="749.32,-1526.41 759.32,-1522.91 749.32,-1519.41 749.32,-1526.41" style=""/>
<text text-anchor="middle" x="701.47" y="-1527.41" font-family="Times,serif" font-size="15.00" fill="#0847cf" style="">t</text>
</g>
<!-- KW_until5 -->
<g id="node27" class="node" pointer-events="visible" data-name="KW_until5">

<ellipse fill="none" stroke="black" cx="940.56" cy="-1522.91" rx="18" ry="18" style=""/>
</g>
<!-- KW_until4&#45;&gt;KW_until5 -->
<g id="edge26" class="edge" data-name="KW_until4-&gt;KW_until5">

<path fill="none" stroke="black" d="M797.39,-1522.91C824.73,-1522.91 878.04,-1522.91 911.05,-1522.91" style=""/>
<polygon fill="black" stroke="black" points="910.69,-1526.41 920.69,-1522.91 910.69,-1519.41 910.69,-1526.41" style=""/>
<text text-anchor="middle" x="856.57" y="-1527.41" font-family="Times,serif" font-size="15.00" fill="#0847cf" style="">i</text>
</g>
<!-- KW_until6 -->
<g id="node28" class="node" pointer-events="visible" data-name="KW_until6">

<ellipse fill="none" stroke="black" cx="1111.98" cy="-1498.91" rx="60.84" ry="60.84" style=""/>
<ellipse fill="none" stroke="black" cx="1111.98" cy="-1498.91" rx="64.83" ry="64.83" style=""/>
<text text-anchor="middle" x="1111.98" y="-1494.71" font-family="Times,serif" font-size="14.00" style="">UNTIL_KW</text>
</g>
<!-- KW_until5&#45;&gt;KW_until6 -->
<g id="edge27" class="edge" data-name="KW_until5-&gt;KW_until6">

<path fill="none" stroke="black" d="M958.73,-1520.48C977.08,-1517.88 1007.41,-1513.58 1036.19,-1509.5" style=""/>
<polygon fill="black" stroke="black" points="1036.63,-1512.98 1046.05,-1508.11 1035.65,-1506.05 1036.63,-1512.98" style=""/>
<text text-anchor="middle" x="1024.13" y="-1515.41" font-family="Times,serif" font-size="15.00" fill="#0847cf" style="">l</text>
</g>
<!-- KW_read2 -->
<g id="node30" class="node" pointer-events="visible" data-name="KW_read2">

<ellipse fill="none" stroke="black" cx="422.76" cy="-1468.91" rx="18" ry="18" style=""/>
</g>
<!-- KW_read1&#45;&gt;KW_read2 -->
<g id="edge29" class="edge" data-name="KW_read1-&gt;KW_read2">

<path fill="none" stroke="black" d="M254.81,-1414.29C274.72,-1420.83 309.35,-1432.19 339.05,-1441.91 357.53,-1447.96 378.35,-1454.75 394.47,-1460.01" style=""/>
<polygon fill="black" stroke="black" points="393.25,-1463.3 403.84,-1463.07 395.42,-1456.64 393.25,-1463.3" style=""/>
<text text-anchor="middle" x="297.24" y="-1439.41" font-family="Times,serif" font-size="15.00" fill="#0847cf" style="">r</text>
</g>
<!-- KW_read3 -->
<g id="node31" class="node" pointer-events="visible" data-name="KW_read3">

<ellipse fill="none" stroke="black" cx="615.32" cy="-1468.91" rx="18" ry="18" style=""/>
</g>
<!-- KW_read2&#45;&gt;KW_read3 -->
<g id="edge30" class="edge" data-name="KW_read2-&gt;KW_read3">

<path fill="none" stroke="black" d="M441,-1468.91C473.8,-1468.91 545.46,-1468.91 585.6,-1468.91" style=""/>
<polygon fill="black" stroke="black" points="585.46,-1472.41 595.46,-1468.91 585.46,-1465.41 585.46,-1472.41" style=""/>
<text text-anchor="middle" x="528.69" y="-1473.41" font-family="Times,serif" font-size="15.00" fill="#0847cf" style="">e</text>
</g>
<!-- KW_read4 -->
<g id="node32" class="node" pointer-events="visible" data-name="KW_read4">

<ellipse fill="none" stroke="black" cx="779.02" cy="-1468.91" rx="18" ry="18" style=""/>
</g>
<!-- KW_read3&#45;&gt;KW_read4 -->
<g id="edge31" class="edge" data-name="KW_read3-&gt;KW_read4">

<path fill="none" stroke="black" d="M633.62,-1468.91C661.34,-1468.91 715.98,-1468.91 749.52,-1468.91" style=""/>
<polygon fill="black" stroke="black" points="749.32,-1472.41 759.32,-1468.91 749.32,-1465.41 749.32,-1472.41" style=""/>
<text text-anchor="middle" x="701.47" y="-1473.41" font-family="Times,serif" font-size="15.00" fill="#0847cf" style="">a</text>
</g>
<!-- KW_read5 -->
<g id="node33" class="node" pointer-events="visible" data-name="KW_read5">

<ellipse fill="none" stroke="black" cx="940.56" cy="-1424.91" rx="58.47" ry="58.47" style=""/>
<ellipse fill="none" stroke="black" cx="940.56" cy="-1424.91" rx="62.48" ry="62.48" style=""/>
<text text-anchor="middle" x="940.56" y="-1420.71" font-family="Times,serif" font-size="14.00" style="">READ_KW</text>
</g>
<!-- KW_read4&#45;&gt;KW_read5 -->
<g id="edge32" class="edge" data-name="KW_read4-&gt;KW_read5">

<path fill="none" stroke="black" d="M796.79,-1464.29C814.09,-1459.51 842.23,-1451.75 868.98,-1444.37" style=""/>
<polygon fill="black" stroke="black" points="869.76,-1447.79 878.47,-1441.76 867.9,-1441.04 869.76,-1447.79" style=""/>
<text text-anchor="middle" x="856.57" y="-1452.41" font-family="Times,serif" font-size="15.00" fill="#0847cf" style="">d</text>
</g>
<!-- KW_write2 -->
<g id="node35" class="node" pointer-events="visible" data-name="KW_write2">

<ellipse fill="none" stroke="black" cx="422.76" cy="-1414.91" rx="18" ry="18" style=""/>
</g>
<!-- KW_write1&#45;&gt;KW_write2 -->
<g id="edge34" class="edge" data-name="KW_write1-&gt;KW_write2">

<path fill="none" stroke="black" d="M254.75,-1357.12C274.6,-1364.63 309.16,-1377.54 339.05,-1387.91 357.42,-1394.29 378.24,-1401.08 394.39,-1406.25" style=""/>
<polygon fill="black" stroke="black" points="393.19,-1409.55 403.78,-1409.25 395.32,-1402.88 393.19,-1409.55" style=""/>
<text text-anchor="middle" x="297.24" y="-1385.41" font-family="Times,serif" font-size="15.00" fill="#0847cf" style="">w</text>
</g>
<!-- KW_write3 -->
<g id="node36" class="node" pointer-events="visible" data-name="KW_write3">

<ellipse fill="none" stroke="black" cx="615.32" cy="-1414.91" rx="18" ry="18" style=""/>
</g>
<!-- KW_write2&#45;&gt;KW_write3 -->
<g id="edge35" class="edge" data-name="KW_write2-&gt;KW_write3">

<path fill="none" stroke="black" d="M441,-1414.91C473.8,-1414.91 545.46,-1414.91 585.6,-1414.91" style=""/>
<polygon fill="black" stroke="black" points="585.46,-1418.41 595.46,-1414.91 585.46,-1411.41 585.46,-1418.41" style=""/>
<text text-anchor="middle" x="528.69" y="-1419.41" font-family="Times,serif" font-size="15.00" fill="#0847cf" style="">r</text>
</g>
<!-- KW_write4 -->
<g id="node37" class="node" pointer-events="visible" data-name="KW_write4">

<ellipse fill="none" stroke="black" cx="779.02" cy="-1414.91" rx="18" ry="18" style=""/>
</g>
<!-- KW_write3&#45;&gt;KW_write4 -->
<g id="edge36" class="edge" data-name="KW_write3-&gt;KW_write4">

<path fill="none" stroke="black" d="M633.62,-1414.91C661.34,-1414.91 715.98,-1414.91 749.52,-1414.91" style=""/>
<polygon fill="black" stroke="black" points="749.32,-1418.41 759.32,-1414.91 749.32,-1411.41 749.32,-1418.41" style=""/>
<text text-anchor="middle" x="701.47" y="-1419.41" font-family="Times,serif" font-size="15.00" fill="#0847cf" style="">i</text>
</g>
<!-- KW_write5 -->
<g id="node38" class="node" pointer-events="visible" data-name="KW_write5">

<ellipse fill="none" stroke="black" cx="940.56" cy="-1326.91" rx="18" ry="18" style=""/>
</g>
<!-- KW_write4&#45;&gt;KW_write5 -->
<g id="edge37" class="edge" data-name="KW_write4-&gt;KW_write5">

<path fill="none" stroke="black" d="M795.83,-1408.17C807.03,-1403.14 822.24,-1395.81 834.82,-1387.91 855.6,-1374.86 857.26,-1366.51 878.32,-1353.91 889.05,-1347.49 901.58,-1341.69 912.5,-1337.14" style=""/>
<polygon fill="black" stroke="black" points="913.77,-1340.4 921.75,-1333.42 911.17,-1333.9 913.77,-1340.4" style=""/>
<text text-anchor="middle" x="856.57" y="-1378.41" font-family="Times,serif" font-size="15.00" fill="#0847cf" style="">t</text>
</g>
<!-- KW_write6 -->
<g id="node39" class="node" pointer-events="visible" data-name="KW_write6">

<ellipse fill="none" stroke="black" cx="1111.98" cy="-1326.91" rx="62.54" ry="62.54" style=""/>
<ellipse fill="none" stroke="black" cx="1111.98" cy="-1326.91" rx="66.55" ry="66.55" style=""/>
<text text-anchor="middle" x="1111.98" y="-1322.71" font-family="Times,serif" font-size="14.00" style="">WRITE_KW</text>
</g>
<!-- KW_write5&#45;&gt;KW_write6 -->
<g id="edge38" class="edge" data-name="KW_write5-&gt;KW_write6">

<path fill="none" stroke="black" d="M959.05,-1326.91C976.88,-1326.91 1005.81,-1326.91 1033.66,-1326.91" style=""/>
<polygon fill="black" stroke="black" points="1033.57,-1330.41 1043.57,-1326.91 1033.57,-1323.41 1033.57,-1330.41" style=""/>
<text text-anchor="middle" x="1024.13" y="-1331.41" font-family="Times,serif" font-size="15.00" fill="#0847cf" style="">e</text>
</g>
<!-- KW_end2 -->
<g id="node41" class="node" pointer-events="visible" data-name="KW_end2">

<ellipse fill="none" stroke="black" cx="422.76" cy="-1360.91" rx="18" ry="18" style=""/>
</g>
<!-- KW_end1&#45;&gt;KW_end2 -->
<g id="edge40" class="edge" data-name="KW_end1-&gt;KW_end2">

<path fill="none" stroke="black" d="M254.27,-1297.4C273.92,-1306.57 308.58,-1322.31 339.05,-1333.91 357.23,-1340.83 378.04,-1347.62 394.24,-1352.66" style=""/>
<polygon fill="black" stroke="black" points="393.08,-1355.97 403.67,-1355.55 395.14,-1349.27 393.08,-1355.97" style=""/>
<text text-anchor="middle" x="297.24" y="-1330.41" font-family="Times,serif" font-size="15.00" fill="#0847cf" style="">e</text>
</g>
<!-- KW_end3 -->
<g id="node42" class="node" pointer-events="visible" data-name="KW_end3">

<ellipse fill="none" stroke="black" cx="615.32" cy="-1331.91" rx="18" ry="18" style=""/>
</g>
<!-- KW_end2&#45;&gt;KW_end3 -->
<g id="edge41" class="edge" data-name="KW_end2-&gt;KW_end3">

<path fill="none" stroke="black" d="M441,-1358.29C473.88,-1353.28 545.82,-1342.34 585.91,-1336.23" style=""/>
<polygon fill="black" stroke="black" points="586.39,-1339.7 595.75,-1334.74 585.34,-1332.78 586.39,-1339.7" style=""/>
<text text-anchor="middle" x="528.69" y="-1349.41" font-family="Times,serif" font-size="15.00" fill="#0847cf" style="">n</text>
</g>
<!-- KW_end4 -->
<g id="node43" class="node" pointer-events="visible" data-name="KW_end4">

<ellipse fill="none" stroke="black" cx="779.02" cy="-1322.91" rx="51.62" ry="51.62" style=""/>
<ellipse fill="none" stroke="black" cx="779.02" cy="-1322.91" rx="55.6" ry="55.6" style=""/>
<text text-anchor="middle" x="779.02" y="-1318.71" font-family="Times,serif" font-size="14.00" style="">END_KW</text>
</g>
<!-- KW_end3&#45;&gt;KW_end4 -->
<g id="edge42" class="edge" data-name="KW_end3-&gt;KW_end4">

<path fill="none" stroke="black" d="M633.62,-1330.95C652.4,-1329.9 683.51,-1328.17 712.07,-1326.58" style=""/>
<polygon fill="black" stroke="black" points="711.96,-1330.09 721.75,-1326.04 711.58,-1323.1 711.96,-1330.09" style=""/>
<text text-anchor="middle" x="701.47" y="-1331.41" font-family="Times,serif" font-size="15.00" fill="#0847cf" style="">d</text>
</g>
<!-- IDF -->
<g id="node45" class="node" pointer-events="visible" data-name="IDF">

<ellipse fill="none" stroke="black" cx="422.76" cy="-1263.91" rx="21.42" ry="21.42" style=""/>
<ellipse fill="none" stroke="black" cx="422.76" cy="-1263.91" rx="25.45" ry="25.45" style=""/>
<text text-anchor="middle" x="422.76" y="-1259.71" font-family="Times,serif" font-size="14.00" style="">ID</text>
</g>
<!-- ID1&#45;&gt;IDF -->
<g id="edge44" class="edge" data-name="ID1-&gt;IDF">

<path fill="none" stroke="black" d="M255.35,-1224.88C285.05,-1231.85 347.17,-1246.42 386.54,-1255.65" style=""/>
<polygon fill="black" stroke="black" points="385.71,-1259.05 396.25,-1257.93 387.31,-1252.24 385.71,-1259.05" style=""/>
<text text-anchor="middle" x="297.24" y="-1243.41" font-family="Times,serif" font-size="15.00" fill="#0847cf" style="">letter</text>
</g>
<!-- IDF&#45;&gt;IDF -->
<g id="edge45" class="edge" data-name="IDF-&gt;IDF">

<path fill="none" stroke="black" d="M404.83,-1282.12C399.4,-1294.73 405.38,-1307.14 422.76,-1307.14 434.84,-1307.14 441.41,-1301.14 442.47,-1293.24" style=""/>
<polygon fill="black" stroke="black" points="445.96,-1292.93 440.92,-1283.62 439.05,-1294.05 445.96,-1292.93" style=""/>
<text text-anchor="middle" x="422.76" y="-1311.64" font-family="Times,serif" font-size="15.00" fill="#0847cf" style="">letter, digit</text>
</g>
<!-- NUMF -->
<g id="node47" class="node" pointer-events="visible" data-name="NUMF">

<ellipse fill="none" stroke="black" cx="422.76" cy="-1127.91" rx="52.21" ry="52.21" style=""/>
<ellipse fill="none" stroke="black" cx="422.76" cy="-1127.91" rx="56.2" ry="56.2" style=""/>
<text text-anchor="middle" x="422.76" y="-1123.71" font-family="Times,serif" font-size="14.00" style="">NUMBER</text>
</g>
<!-- NUM1&#45;&gt;NUMF -->
<g id="edge47" class="edge" data-name="NUM1-&gt;NUMF">

<path fill="none" stroke="black" d="M255.68,-1136.06C278.28,-1134.95 319.23,-1132.94 354.8,-1131.2" style=""/>
<polygon fill="black" stroke="black" points="354.81,-1134.7 364.63,-1130.72 354.47,-1127.71 354.81,-1134.7" style=""/>
<text text-anchor="middle" x="297.24" y="-1139.41" font-family="Times,serif" font-size="15.00" fill="#0847cf" style="">digit</text>
</g>
<!-- NUMF&#45;&gt;NUMF -->
<g id="edge48" class="edge" data-name="NUMF-&gt;NUMF">

<path fill="none" stroke="black" d="M403.33,-1181.04C405.01,-1193.28 411.48,-1202.26 422.76,-1202.26 430.33,-1202.26 435.74,-1198.21 438.98,-1191.83" style=""/>
<polygon fill="black" stroke="black" points="442.27,-1193.08 441.75,-1182.49 435.56,-1191.09 442.27,-1193.08" style=""/>
<text text-anchor="middle" x="422.76" y="-1206.76" font-family="Times,serif" font-size="15.00" fill="#0847cf" style="">digit</text>
</g>
<!-- ARITHOPF -->
<g id="node49" class="node" pointer-events="visible" data-name="ARITHOPF">

<ellipse fill="none" stroke="black" cx="422.76" cy="-978.91" rx="70.66" ry="70.66" style=""/>
<ellipse fill="none" stroke="black" cx="422.76" cy="-978.91" rx="74.66" ry="74.66" style=""/>
<text text-anchor="middle" x="422.76" y="-974.71" font-family="Times,serif" font-size="14.00" style="">ARITHMETIC</text>
</g>
<!-- ARITHOP&#45;&gt;ARITHOPF -->
<g id="edge50" class="edge" data-name="ARITHOP-&gt;ARITHOPF">

<path fill="none" stroke="black" d="M253.75,-1072.39C274.43,-1060.88 312.73,-1039.57 347.55,-1020.2" style=""/>
<polygon fill="black" stroke="black" points="348.9,-1023.46 355.93,-1015.53 345.49,-1017.34 348.9,-1023.46" style=""/>
<text text-anchor="middle" x="297.24" y="-1065.41" font-family="Times,serif" font-size="15.00" fill="#0847cf" style="">+, -, *, /</text>
</g>
<!-- COMPOPF -->
<g id="node51" class="node" pointer-events="visible" data-name="COMPOPF">

<ellipse fill="none" stroke="black" cx="422.76" cy="-826.91" rx="55.27" ry="55.27" style=""/>
<ellipse fill="none" stroke="black" cx="422.76" cy="-826.91" rx="59.26" ry="59.26" style=""/>
<text text-anchor="middle" x="422.76" y="-822.71" font-family="Times,serif" font-size="14.00" style="">COMPARISON</text>
</g>
<!-- COMPOP&#45;&gt;COMPOPF -->
<g id="edge52" class="edge" data-name="COMPOP-&gt;COMPOPF">

<path fill="none" stroke="black" d="M248.36,-1008.26C265.44,-983.58 302.09,-932.69 339.05,-894.91 347.51,-886.26 357.02,-877.62 366.48,-869.53" style=""/>
<polygon fill="black" stroke="black" points="368.56,-872.36 373.98,-863.25 364.07,-866.99 368.56,-872.36" style=""/>
<text text-anchor="middle" x="297.24" y="-976.41" font-family="Times,serif" font-size="15.00" fill="#0847cf" style="">&lt;, =</text>
</g>
<!-- ASSIGN2 -->
<g id="node53" class="node" pointer-events="visible" data-name="ASSIGN2">

<ellipse fill="none" stroke="black" cx="422.76" cy="-731.91" rx="18" ry="18" style=""/>
</g>
<!-- ASSIGN1&#45;&gt;ASSIGN2 -->
<g id="edge54" class="edge" data-name="ASSIGN1-&gt;ASSIGN2">

<path fill="none" stroke="black" d="M245.65,-944.67C266.02,-899.06 323.52,-772.32 339.05,-758.91 354.29,-745.76 376.07,-738.98 393.46,-735.51" style=""/>
<polygon fill="black" stroke="black" points="393.9,-738.99 403.16,-733.85 392.72,-732.09 393.9,-738.99" style=""/>
<text text-anchor="middle" x="297.24" y="-887.41" font-family="Times,serif" font-size="15.00" fill="#0847cf" style="">:</text>
</g>
<!-- ASSIGNF -->
<g id="node54" class="node" pointer-events="visible" data-name="ASSIGNF">

<ellipse fill="none" stroke="black" cx="615.32" cy="-731.91" rx="54.64" ry="54.64" style=""/>
<ellipse fill="none" stroke="black" cx="615.32" cy="-731.91" rx="58.64" ry="58.64" style=""/>
<text text-anchor="middle" x="615.32" y="-727.71" font-family="Times,serif" font-size="14.00" style="">ASSIGNMENT</text>
</g>
<!-- ASSIGN2&#45;&gt;ASSIGNF -->
<g id="edge55" class="edge" data-name="ASSIGN2-&gt;ASSIGNF">

<path fill="none" stroke="black" d="M441,-731.91C464.42,-731.91 507.64,-731.91 545.06,-731.91" style=""/>
<polygon fill="black" stroke="black" points="544.95,-735.41 554.95,-731.91 544.95,-728.41 544.95,-735.41" style=""/>
<text text-anchor="middle" x="528.69" y="-736.41" font-family="Times,serif" font-size="15.00" fill="#0847cf" style="">=</text>
</g>
<!-- PUNCTUATIONF -->
<g id="node56" class="node" pointer-events="visible" data-name="PUNCTUATIONF">

<ellipse fill="none" stroke="black" cx="422.76" cy="-611.91" rx="79.9" ry="79.9" style=""/>
<ellipse fill="none" stroke="black" cx="422.76" cy="-611.91" rx="83.91" ry="83.91" style=""/>
<text text-anchor="middle" x="422.76" y="-607.71" font-family="Times,serif" font-size="14.00" style="">PUNCTUATION</text>
</g>
<!-- PUNCTUATION&#45;&gt;PUNCTUATIONF -->
<g id="edge57" class="edge" data-name="PUNCTUATION-&gt;PUNCTUATIONF">

<path fill="none" stroke="black" d="M243.69,-874.74C247.11,-863.44 251.63,-848.32 255.43,-834.91 263.84,-805.25 258.34,-794.8 273.43,-767.91 293.07,-732.91 322.34,-699.82 349.7,-673.2" style=""/>
<polygon fill="black" stroke="black" points="351.83,-676 356.64,-666.55 346.99,-670.94 351.83,-676" style=""/>
<text text-anchor="middle" x="297.24" y="-772.41" font-family="Times,serif" font-size="15.00" fill="#0847cf" style="">(, )</text>
</g>
<!-- SEMIF -->
<g id="node58" class="node" pointer-events="visible" data-name="SEMIF">

<ellipse fill="none" stroke="black" cx="422.76" cy="-438.91" rx="67.25" ry="67.25" style=""/>
<ellipse fill="none" stroke="black" cx="422.76" cy="-438.91" rx="71.24" ry="71.24" style=""/>
<text text-anchor="middle" x="422.76" y="-434.71" font-family="Times,serif" font-size="14.00" style="">SEMICOLON</text>
</g>
<!-- SEMICOLON&#45;&gt;SEMIF -->
<g id="edge59" class="edge" data-name="SEMICOLON-&gt;SEMIF">

<path fill="none" stroke="black" d="M241.41,-789.9C249.97,-742.2 277.99,-610.06 339.05,-518.91 345.14,-509.82 352.41,-500.97 360.07,-492.65" style=""/>
<polygon fill="black" stroke="black" points="362.41,-495.27 366.79,-485.63 357.35,-490.43 362.41,-495.27" style=""/>
<text text-anchor="middle" x="297.24" y="-658.41" font-family="Times,serif" font-size="15.00" fill="#0847cf" style="">;</text>
</g>
<!-- COMMAF -->
<g id="node60" class="node" pointer-events="visible" data-name="COMMAF">

<ellipse fill="none" stroke="black" cx="422.76" cy="-296.91" rx="48.69" ry="48.69" style=""/>
<ellipse fill="none" stroke="black" cx="422.76" cy="-296.91" rx="52.7" ry="52.7" style=""/>
<text text-anchor="middle" x="422.76" y="-292.71" font-family="Times,serif" font-size="14.00" style="">COMMA</text>
</g>
<!-- COMMA&#45;&gt;COMMAF -->
<g id="edge61" class="edge" data-name="COMMA-&gt;COMMAF">

<path fill="none" stroke="black" d="M239.55,-675.61C243.7,-621.72 262.2,-461.06 339.05,-358.91 347.06,-348.27 357.38,-338.59 367.99,-330.2" style=""/>
<polygon fill="black" stroke="black" points="369.84,-333.19 375.72,-324.38 365.63,-327.6 369.84,-333.19" style=""/>
<text text-anchor="middle" x="297.24" y="-490.41" font-family="Times,serif" font-size="15.00" fill="#0847cf" style="">,</text>
</g>
<!-- COMMENT_BODY -->
<g id="node62" class="node" pointer-events="visible" data-name="COMMENT_BODY">

<ellipse fill="none" stroke="black" cx="422.76" cy="-171.91" rx="18" ry="18" style=""/>
</g>
<!-- COMMENT&#45;&gt;COMMENT_BODY -->
<g id="edge63" class="edge" data-name="COMMENT-&gt;COMMENT_BODY">

<path fill="none" stroke="black" d="M238.79,-501.75C240.16,-449.04 246.4,-297.16 273.43,-256.91 302.12,-214.19 360,-190.34 394.36,-179.4" style=""/>
<polygon fill="black" stroke="black" points="395.02,-182.86 403.58,-176.62 393,-176.16 395.02,-182.86" style=""/>
<text text-anchor="middle" x="297.24" y="-261.41" font-family="Times,serif" font-size="15.00" fill="#0847cf" style="">{</text>
</g>
<!-- COMMENT_BODY&#45;&gt;COMMENT_BODY -->
<g id="edge64" class="edge" data-name="COMMENT_BODY-&gt;COMMENT_BODY">

<path fill="none" stroke="black" d="M407.86,-182.6C397.93,-194.41 402.89,-207.91 422.76,-207.91 436.88,-207.91 443.47,-201.09 442.53,-192.9" style=""/>
<polygon fill="black" stroke="black" points="445.75,-191.51 438.3,-183.97 439.42,-194.5 445.75,-191.51" style=""/>
<text text-anchor="middle" x="422.76" y="-212.41" font-family="Times,serif" font-size="15.00" fill="#0847cf" style="">[^}]</text>
</g>
<!-- COMMENTF -->
<g id="node63" class="node" pointer-events="visible" data-name="COMMENTF">

<ellipse fill="none" stroke="black" cx="615.32" cy="-181.91" rx="60.3" ry="60.3" style=""/>
<ellipse fill="none" stroke="black" cx="615.32" cy="-181.91" rx="64.29" ry="64.29" style=""/>
<text text-anchor="middle" x="615.32" y="-177.71" font-family="Times,serif" font-size="14.00" style="">COMMENT</text>
</g>
<!-- COMMENT_BODY&#45;&gt;COMMENTF -->
<g id="edge65" class="edge" data-name="COMMENT_BODY-&gt;COMMENTF">

<path fill="none" stroke="black" d="M441,-172.82C463.34,-173.99 503.7,-176.11 539.85,-178" style=""/>
<polygon fill="black" stroke="black" points="539.23,-181.48 549.4,-178.5 539.6,-174.48 539.23,-181.48" style=""/>
<text text-anchor="middle" x="528.69" y="-181.41" font-family="Times,serif" font-size="15.00" fill="#0847cf" style="">}</text>
</g>
<!-- STRING2 -->
<g id="node65" class="node" pointer-events="visible" data-name="STRING2">

<ellipse fill="none" stroke="black" cx="422.76" cy="-60.91" rx="18" ry="18" style=""/>
</g>
<!-- STRING1&#45;&gt;STRING2 -->
<g id="edge67" class="edge" data-name="STRING1-&gt;STRING2">

<path fill="none" stroke="black" d="M247.04,-210.38C253.49,-199.51 262.98,-184.99 273.43,-173.91 311.94,-133.07 366.33,-95.71 397.42,-75.86" style=""/>
<polygon fill="black" stroke="black" points="399.14,-78.91 405.74,-70.62 395.41,-72.99 399.14,-78.91" style=""/>
<text text-anchor="middle" x="297.24" y="-178.41" font-family="Times,serif" font-size="15.00" fill="#0847cf" style="">"</text>
</g>
<!-- STRING2&#45;&gt;STRING2 -->
<g id="edge68" class="edge" data-name="STRING2-&gt;STRING2">

<path fill="none" stroke="black" d="M407.86,-71.6C397.93,-83.41 402.89,-96.91 422.76,-96.91 436.88,-96.91 443.47,-90.09 442.53,-81.9" style=""/>
<polygon fill="black" stroke="black" points="445.75,-80.51 438.3,-72.97 439.42,-83.5 445.75,-80.51" style=""/>
<text text-anchor="middle" x="422.76" y="-101.41" font-family="Times,serif" font-size="15.00" fill="#0847cf" style="">[^"]</text>
</g>
<!-- STRINGF -->
<g id="node66" class="node" pointer-events="visible" data-name="STRINGF">

<ellipse fill="none" stroke="black" cx="615.32" cy="-49.91" rx="45.83" ry="45.83" style=""/>
<ellipse fill="none" stroke="black" cx="615.32" cy="-49.91" rx="49.82" ry="49.82" style=""/>
<text text-anchor="middle" x="615.32" y="-45.71" font-family="Times,serif" font-size="14.00" style="">STRING</text>
</g>
<!-- STRING2&#45;&gt;STRINGF -->
<g id="edge69" class="edge" data-name="STRING2-&gt;STRINGF">

<path fill="none" stroke="black" d="M441,-59.92C466.27,-58.46 514.6,-55.67 553.82,-53.4" style=""/>
<polygon fill="black" stroke="black" points="553.84,-56.91 563.62,-52.84 553.44,-49.92 553.84,-56.91" style=""/>
<text text-anchor="middle" x="528.69" y="-60.41" font-family="Times,serif" font-size="15.00" fill="#0847cf" style="">"</text>
</g>
</g>
</svg>